<?xml version="1.0" encoding="UTF-8" standalone="no"?>
<svg
   xmlns:dc="http://purl.org/dc/elements/1.1/"
   xmlns:cc="http://creativecommons.org/ns#"
   xmlns:rdf="http://www.w3.org/1999/02/22-rdf-syntax-ns#"
   xmlns:svg="http://www.w3.org/2000/svg"
   xmlns="http://www.w3.org/2000/svg"
   viewBox="0 0 406.09332 203.05333"
   height="203.05333"
   width="406.09332"
   xml:space="preserve"
   id="svg2"
   version="1.1"><metadata
     id="metadata8"><rdf:RDF><cc:Work
         rdf:about=""><dc:format>image/svg+xml</dc:format><dc:type
           rdf:resource="http://purl.org/dc/dcmitype/StillImage" /></cc:Work></rdf:RDF></metadata><defs
     id="defs6"><clipPath
       id="clipPath20"
       clipPathUnits="userSpaceOnUse"><path
         id="path18"
         d="M 0,1522.85 V 0 h 3045.69 v 1522.85 z" /></clipPath></defs><g
     transform="matrix(1.3333333,0,0,-1.3333333,0,203.05333)"
     id="g10"><g
       transform="scale(0.1)"
       id="g12"><g
         id="g14"><g
           clip-path="url(#clipPath20)"
           id="g16"><path
             id="path22"
             style="fill:#26CACA;fill-opacity:1;fill-rule:nonzero;stroke:none"
             d="M 0,0 H 3045.69 V 1522.85 H 0 Z" /><path
             id="path24"
             style="fill:#3f94a8;fill-opacity:1;fill-rule:nonzero;stroke:none"
             d="m 1195.06,289.359 c -0.07,18.621 -9.77,35.422 -25.36,47.52 l -1.5,-1.629 c 14.97,-11.73 24.27,-27.941 24.33,-45.898 0.06,-15.762 -6.99,-30.231 -18.77,-41.543 l 1.53,-1.637 c 12.39,11.726 19.84,26.777 19.77,43.187" /><path
             id="path26"
             style="fill:#3f94a8;fill-opacity:1;fill-rule:nonzero;stroke:none"
             d="m 1175.63,289.289 c 0.04,-11.301 -4.57,-21.75 -12.33,-30.301 l 1.35,-1.437 c 8.28,8.898 13.21,19.859 13.16,31.758 -0.06,14.101 -7.08,26.863 -18.43,36.382 l -1.31,-1.421 c 10.82,-9.188 17.51,-21.45 17.56,-34.981" /><path
             id="path28"
             style="fill:#3f94a8;fill-opacity:1;fill-rule:nonzero;stroke:none"
             d="m 1148.09,313.449 -1.32,-1.437 c 6.29,-6.282 10.09,-14.172 10.12,-22.801 0.03,-6.32 -1.97,-12.281 -5.5,-17.512 l 1.39,-1.48 c 3.99,5.633 6.28,12.101 6.26,19.011 -0.04,9.18 -4.15,17.579 -10.95,24.219" /><path
             id="path30"
             style="fill:#3f94a8;fill-opacity:1;fill-rule:nonzero;stroke:none"
             d="m 841.637,289.488 c -0.075,18.614 9.496,35.5 24.988,47.723 l 1.516,-1.621 c -14.875,-11.84 -24.043,-28.129 -23.969,-46.09 0.051,-15.762 7.219,-30.18 19.086,-41.398 l -1.516,-1.653 c -12.48,11.621 -20.039,26.61 -20.105,43.039" /><path
             id="path32"
             style="fill:#3f94a8;fill-opacity:1;fill-rule:nonzero;stroke:none"
             d="m 861.07,289.559 c 0.047,-11.297 4.735,-21.707 12.575,-30.2 l -1.348,-1.461 c -8.352,8.864 -13.359,19.774 -13.41,31.653 -0.055,14.109 6.871,26.937 18.144,36.539 l 1.328,-1.41 C 867.605,315.398 861.02,303.082 861.07,289.559" /><path
             id="path34"
             style="fill:#3f94a8;fill-opacity:1;fill-rule:nonzero;stroke:none"
             d="m 888.43,313.93 1.32,-1.418 c -6.234,-6.332 -9.98,-14.25 -9.941,-22.871 0.027,-6.321 2.066,-12.27 5.636,-17.461 l -1.383,-1.52 c -4.035,5.61 -6.371,12.07 -6.394,18.969 -0.039,9.191 4.008,17.621 10.762,24.301" /><path
             id="path36"
             style="fill:#ffffff;fill-opacity:1;fill-rule:nonzero;stroke:none"
             d="m 1847.1,1000.87 c 0.87,11.87 7.03,23.92 17.91,32.21 9.72,7.63 21.64,10.69 32.74,9.56 11.85,15.28 30.15,25.2 50.71,25.22 28.16,0.1 52.14,-18.4 61.33,-44.09 26.09,-3.78 45.97,-24.415 46.04,-49.336 0.06,-27.684 -24.42,-50.305 -54.61,-50.344 l -145.19,-0.418 v 0.527 c -2.25,-0.293 -4.48,-0.527 -6.78,-0.562 -22.35,-0.071 -40.87,17.187 -41,38.504 0,20.73 17.37,37.578 38.85,38.729" /><path
             id="path38"
             style="fill:#ffffff;fill-opacity:1;fill-rule:nonzero;stroke:none"
             d="m 2003.59,1008.38 c 0.63,8.37 4.95,16.88 12.66,22.73 6.87,5.37 15.23,7.55 23.07,6.73 8.39,10.77 21.29,17.78 35.81,17.8 19.83,0.07 36.77,-12.96 43.23,-31.1 18.4,-2.66 32.43,-17.22 32.48,-34.825 0.05,-19.52 -17.2,-35.473 -38.52,-35.488 l -102.42,-0.293 v 0.363 c -1.58,-0.227 -3.16,-0.363 -4.78,-0.399 -15.78,-0.031 -28.84,12.129 -28.94,27.157 0,14.621 12.24,26.545 27.41,27.325" /><path
             id="path40"
             style="fill:#1f2532;fill-opacity:1;fill-rule:nonzero;stroke:none"
             d="m 585.52,370.59 h 285.641 v 644.633 H 585.52 Z" /><path
             id="path42"
             style="fill:#304e63;fill-opacity:1;fill-rule:nonzero;stroke:none"
             d="m 598.227,370.59 h 285.656 v 644.633 H 598.227 Z" /><path
             id="path44"
             style="fill:#1f2532;fill-opacity:1;fill-rule:nonzero;stroke:none"
             d="m 814.566,963.793 h 31.9531 V 995.75 H 814.566 Z" /><path
             id="path46"
             style="fill:#1f2532;fill-opacity:1;fill-rule:nonzero;stroke:none"
             d="m 814.566,900.051 h 31.9531 v 31.9531 H 814.566 Z" /><path
             id="path48"
             style="fill:#1f2532;fill-opacity:1;fill-rule:nonzero;stroke:none"
             d="m 814.566,836.301 h 31.9531 v 31.9492 H 814.566 Z" /><path
             id="path50"
             style="fill:#1f2532;fill-opacity:1;fill-rule:nonzero;stroke:none"
             d="m 814.566,772.547 h 31.9531 v 31.957 H 814.566 Z" /><path
             id="path52"
             style="fill:#1f2532;fill-opacity:1;fill-rule:nonzero;stroke:none"
             d="m 814.566,708.809 h 31.9531 v 31.9531 H 814.566 Z" /><path
             id="path54"
             style="fill:#1f2532;fill-opacity:1;fill-rule:nonzero;stroke:none"
             d="m 814.566,645.059 h 31.9531 v 31.9531 H 814.566 Z" /><path
             id="path56"
             style="fill:#1f2532;fill-opacity:1;fill-rule:nonzero;stroke:none"
             d="m 814.566,581.309 h 31.9531 v 31.9609 H 814.566 Z" /><path
             id="path58"
             style="fill:#1f2532;fill-opacity:1;fill-rule:nonzero;stroke:none"
             d="m 814.566,517.57 h 31.9531 v 31.9609 H 814.566 Z" /><path
             id="path60"
             style="fill:#1f2532;fill-opacity:1;fill-rule:nonzero;stroke:none"
             d="m 814.566,453.832 h 31.9531 v 31.9375 H 814.566 Z" /><path
             id="path62"
             style="fill:#1f2532;fill-opacity:1;fill-rule:nonzero;stroke:none"
             d="m 814.566,390.07 h 31.9531 v 31.9609 H 814.566 Z" /><path
             id="path64"
             style="fill:#d5e8f0;fill-opacity:1;fill-rule:nonzero;stroke:none"
             d="m 820.422,963.793 h 31.9453 V 995.75 H 820.422 Z" /><path
             id="path66"
             style="fill:#d5e8f0;fill-opacity:1;fill-rule:nonzero;stroke:none"
             d="m 820.422,900.051 h 31.9453 v 31.9531 H 820.422 Z" /><path
             id="path68"
             style="fill:#d5e8f0;fill-opacity:1;fill-rule:nonzero;stroke:none"
             d="m 820.422,836.301 h 31.9453 v 31.9492 H 820.422 Z" /><path
             id="path70"
             style="fill:#d5e8f0;fill-opacity:1;fill-rule:nonzero;stroke:none"
             d="m 820.422,772.547 h 31.9453 v 31.957 H 820.422 Z" /><path
             id="path72"
             style="fill:#d5e8f0;fill-opacity:1;fill-rule:nonzero;stroke:none"
             d="m 820.422,708.809 h 31.9453 v 31.9531 H 820.422 Z" /><path
             id="path74"
             style="fill:#d5e8f0;fill-opacity:1;fill-rule:nonzero;stroke:none"
             d="m 820.422,645.059 h 31.9453 v 31.9531 H 820.422 Z" /><path
             id="path76"
             style="fill:#d5e8f0;fill-opacity:1;fill-rule:nonzero;stroke:none"
             d="m 820.422,581.309 h 31.9453 v 31.9609 H 820.422 Z" /><path
             id="path78"
             style="fill:#d5e8f0;fill-opacity:1;fill-rule:nonzero;stroke:none"
             d="m 820.422,517.57 h 31.9453 v 31.9609 H 820.422 Z" /><path
             id="path80"
             style="fill:#d5e8f0;fill-opacity:1;fill-rule:nonzero;stroke:none"
             d="m 820.422,453.832 h 31.9453 v 31.9375 H 820.422 Z" /><path
             id="path82"
             style="fill:#d5e8f0;fill-opacity:1;fill-rule:nonzero;stroke:none"
             d="m 820.422,390.07 h 31.9453 v 31.9609 H 820.422 Z" /><path
             id="path84"
             style="fill:#1f2532;fill-opacity:1;fill-rule:nonzero;stroke:none"
             d="m 747.125,963.793 h 31.9414 V 995.75 H 747.125 Z" /><path
             id="path86"
             style="fill:#1f2532;fill-opacity:1;fill-rule:nonzero;stroke:none"
             d="m 747.125,900.051 h 31.9414 v 31.9531 H 747.125 Z" /><path
             id="path88"
             style="fill:#1f2532;fill-opacity:1;fill-rule:nonzero;stroke:none"
             d="m 747.125,836.301 h 31.9414 v 31.9492 H 747.125 Z" /><path
             id="path90"
             style="fill:#1f2532;fill-opacity:1;fill-rule:nonzero;stroke:none"
             d="m 747.125,772.547 h 31.9414 v 31.957 H 747.125 Z" /><path
             id="path92"
             style="fill:#1f2532;fill-opacity:1;fill-rule:nonzero;stroke:none"
             d="m 747.125,708.809 h 31.9414 v 31.9531 H 747.125 Z" /><path
             id="path94"
             style="fill:#1f2532;fill-opacity:1;fill-rule:nonzero;stroke:none"
             d="m 747.125,645.059 h 31.9414 v 31.9531 H 747.125 Z" /><path
             id="path96"
             style="fill:#1f2532;fill-opacity:1;fill-rule:nonzero;stroke:none"
             d="m 747.125,581.309 h 31.9414 v 31.9609 H 747.125 Z" /><path
             id="path98"
             style="fill:#1f2532;fill-opacity:1;fill-rule:nonzero;stroke:none"
             d="m 747.125,517.57 h 31.9414 v 31.9609 H 747.125 Z" /><path
             id="path100"
             style="fill:#1f2532;fill-opacity:1;fill-rule:nonzero;stroke:none"
             d="m 747.125,453.832 h 31.9414 v 31.9375 H 747.125 Z" /><path
             id="path102"
             style="fill:#1f2532;fill-opacity:1;fill-rule:nonzero;stroke:none"
             d="m 747.125,390.07 h 31.9414 v 31.9609 H 747.125 Z" /><path
             id="path104"
             style="fill:#d5e8f0;fill-opacity:1;fill-rule:nonzero;stroke:none"
             d="m 752.973,963.793 h 31.9453 V 995.75 H 752.973 Z" /><path
             id="path106"
             style="fill:#d5e8f0;fill-opacity:1;fill-rule:nonzero;stroke:none"
             d="m 752.973,900.051 h 31.9453 v 31.9531 H 752.973 Z" /><path
             id="path108"
             style="fill:#d5e8f0;fill-opacity:1;fill-rule:nonzero;stroke:none"
             d="m 752.973,836.301 h 31.9453 v 31.9492 H 752.973 Z" /><path
             id="path110"
             style="fill:#d5e8f0;fill-opacity:1;fill-rule:nonzero;stroke:none"
             d="m 752.973,772.547 h 31.9453 v 31.957 H 752.973 Z" /><path
             id="path112"
             style="fill:#d5e8f0;fill-opacity:1;fill-rule:nonzero;stroke:none"
             d="m 752.973,708.809 h 31.9453 v 31.9531 H 752.973 Z" /><path
             id="path114"
             style="fill:#d5e8f0;fill-opacity:1;fill-rule:nonzero;stroke:none"
             d="m 752.973,645.059 h 31.9453 v 31.9531 H 752.973 Z" /><path
             id="path116"
             style="fill:#d5e8f0;fill-opacity:1;fill-rule:nonzero;stroke:none"
             d="m 752.973,581.309 h 31.9453 v 31.9609 H 752.973 Z" /><path
             id="path118"
             style="fill:#d5e8f0;fill-opacity:1;fill-rule:nonzero;stroke:none"
             d="m 752.973,517.57 h 31.9453 v 31.9609 H 752.973 Z" /><path
             id="path120"
             style="fill:#d5e8f0;fill-opacity:1;fill-rule:nonzero;stroke:none"
             d="m 752.973,453.832 h 31.9453 v 31.9375 H 752.973 Z" /><path
             id="path122"
             style="fill:#d5e8f0;fill-opacity:1;fill-rule:nonzero;stroke:none"
             d="m 752.973,390.07 h 31.9453 v 31.9609 H 752.973 Z" /><path
             id="path124"
             style="fill:#1f2532;fill-opacity:1;fill-rule:nonzero;stroke:none"
             d="m 679.672,963.793 h 31.9453 V 995.75 H 679.672 Z" /><path
             id="path126"
             style="fill:#1f2532;fill-opacity:1;fill-rule:nonzero;stroke:none"
             d="m 679.672,900.051 h 31.9453 v 31.9531 H 679.672 Z" /><path
             id="path128"
             style="fill:#1f2532;fill-opacity:1;fill-rule:nonzero;stroke:none"
             d="m 679.672,836.301 h 31.9453 v 31.9492 H 679.672 Z" /><path
             id="path130"
             style="fill:#1f2532;fill-opacity:1;fill-rule:nonzero;stroke:none"
             d="m 679.672,772.547 h 31.9453 v 31.957 H 679.672 Z" /><path
             id="path132"
             style="fill:#1f2532;fill-opacity:1;fill-rule:nonzero;stroke:none"
             d="m 679.672,708.809 h 31.9453 v 31.9531 H 679.672 Z" /><path
             id="path134"
             style="fill:#1f2532;fill-opacity:1;fill-rule:nonzero;stroke:none"
             d="m 679.672,645.059 h 31.9453 v 31.9531 H 679.672 Z" /><path
             id="path136"
             style="fill:#1f2532;fill-opacity:1;fill-rule:nonzero;stroke:none"
             d="m 679.672,581.309 h 31.9453 v 31.9609 H 679.672 Z" /><path
             id="path138"
             style="fill:#1f2532;fill-opacity:1;fill-rule:nonzero;stroke:none"
             d="m 679.672,517.57 h 31.9453 v 31.9609 H 679.672 Z" /><path
             id="path140"
             style="fill:#1f2532;fill-opacity:1;fill-rule:nonzero;stroke:none"
             d="m 679.672,453.832 h 31.9453 v 31.9375 H 679.672 Z" /><path
             id="path142"
             style="fill:#1f2532;fill-opacity:1;fill-rule:nonzero;stroke:none"
             d="m 679.672,390.07 h 31.9453 v 31.9609 H 679.672 Z" /><path
             id="path144"
             style="fill:#d5e8f0;fill-opacity:1;fill-rule:nonzero;stroke:none"
             d="m 685.523,963.793 h 31.9375 V 995.75 H 685.523 Z" /><path
             id="path146"
             style="fill:#d5e8f0;fill-opacity:1;fill-rule:nonzero;stroke:none"
             d="m 685.523,900.051 h 31.9375 v 31.9531 H 685.523 Z" /><path
             id="path148"
             style="fill:#d5e8f0;fill-opacity:1;fill-rule:nonzero;stroke:none"
             d="m 685.523,836.301 h 31.9375 v 31.9492 H 685.523 Z" /><path
             id="path150"
             style="fill:#d5e8f0;fill-opacity:1;fill-rule:nonzero;stroke:none"
             d="m 685.523,772.547 h 31.9375 v 31.957 H 685.523 Z" /><path
             id="path152"
             style="fill:#d5e8f0;fill-opacity:1;fill-rule:nonzero;stroke:none"
             d="m 685.523,708.809 h 31.9375 v 31.9531 H 685.523 Z" /><path
             id="path154"
             style="fill:#d5e8f0;fill-opacity:1;fill-rule:nonzero;stroke:none"
             d="m 685.523,645.059 h 31.9375 v 31.9531 H 685.523 Z" /><path
             id="path156"
             style="fill:#d5e8f0;fill-opacity:1;fill-rule:nonzero;stroke:none"
             d="m 685.523,581.309 h 31.9375 v 31.9609 H 685.523 Z" /><path
             id="path158"
             style="fill:#d5e8f0;fill-opacity:1;fill-rule:nonzero;stroke:none"
             d="m 685.523,517.57 h 31.9375 v 31.9609 H 685.523 Z" /><path
             id="path160"
             style="fill:#d5e8f0;fill-opacity:1;fill-rule:nonzero;stroke:none"
             d="m 685.523,453.832 h 31.9375 v 31.9375 H 685.523 Z" /><path
             id="path162"
             style="fill:#d5e8f0;fill-opacity:1;fill-rule:nonzero;stroke:none"
             d="m 685.523,390.07 h 31.9375 v 31.9609 H 685.523 Z" /><path
             id="path164"
             style="fill:#1f2532;fill-opacity:1;fill-rule:nonzero;stroke:none"
             d="m 612.227,963.793 h 31.9375 V 995.75 H 612.227 Z" /><path
             id="path166"
             style="fill:#1f2532;fill-opacity:1;fill-rule:nonzero;stroke:none"
             d="m 612.227,900.051 h 31.9375 v 31.9531 H 612.227 Z" /><path
             id="path168"
             style="fill:#1f2532;fill-opacity:1;fill-rule:nonzero;stroke:none"
             d="m 612.227,581.309 h 31.9375 V 868.25 H 612.227 Z" /><path
             id="path170"
             style="fill:#1f2532;fill-opacity:1;fill-rule:nonzero;stroke:none"
             d="m 612.227,517.57 h 31.9375 v 31.9609 H 612.227 Z" /><path
             id="path172"
             style="fill:#1f2532;fill-opacity:1;fill-rule:nonzero;stroke:none"
             d="m 612.227,390.07 h 31.9375 v 31.9609 H 612.227 Z" /><path
             id="path174"
             style="fill:#d5e8f0;fill-opacity:1;fill-rule:nonzero;stroke:none"
             d="m 618.074,963.793 h 31.9414 V 995.75 H 618.074 Z" /><path
             id="path176"
             style="fill:#d5e8f0;fill-opacity:1;fill-rule:nonzero;stroke:none"
             d="m 618.074,900.051 h 31.9414 v 31.9531 H 618.074 Z" /><path
             id="path178"
             style="fill:#d5e8f0;fill-opacity:1;fill-rule:nonzero;stroke:none"
             d="m 618.074,581.309 h 31.9414 V 868.25 H 618.074 Z" /><path
             id="path180"
             style="fill:#d5e8f0;fill-opacity:1;fill-rule:nonzero;stroke:none"
             d="m 618.074,517.57 h 31.9414 v 31.9609 H 618.074 Z" /><path
             id="path182"
             style="fill:#d5e8f0;fill-opacity:1;fill-rule:nonzero;stroke:none"
             d="m 618.074,390.07 h 31.9414 v 31.9609 H 618.074 Z" /><path
             id="path184"
             style="fill:#1f2532;fill-opacity:1;fill-rule:nonzero;stroke:none"
             d="m 612.227,453.832 h 31.9375 v 31.9375 H 612.227 Z" /><path
             id="path186"
             style="fill:#d5e8f0;fill-opacity:1;fill-rule:nonzero;stroke:none"
             d="m 618.074,453.832 h 31.9414 v 31.9375 H 618.074 Z" /><path
             id="path188"
             style="fill:#fdfefe;fill-opacity:1;fill-rule:nonzero;stroke:none"
             d="m 973.805,535.301 h -89.922 v 5.48 h 89.922 c 7.558,0 13.707,6.153 13.707,13.711 v 29.043 c 0,10.586 8.605,19.188 19.188,19.188 h 46.62 v -5.477 h -46.62 c -7.559,0 -13.708,-6.152 -13.708,-13.711 v -29.043 c 0,-10.586 -8.605,-19.191 -19.187,-19.191" /><path
             id="path190"
             style="fill:#ffffff;fill-opacity:1;fill-rule:nonzero;stroke:none"
             d="m 936.934,795.059 c 0.628,8.367 4.961,16.867 12.66,22.73 6.875,5.367 15.242,7.547 23.078,6.731 8.383,10.773 21.289,17.777 35.808,17.792 19.83,0.071 36.77,-12.968 43.24,-31.093 18.39,-2.672 32.42,-17.227 32.47,-34.824 0.05,-19.524 -17.2,-35.477 -38.52,-35.497 l -102.424,-0.293 v 0.372 c -1.582,-0.235 -3.152,-0.372 -4.769,-0.411 -15.782,-0.019 -28.844,12.137 -28.95,27.161 0,14.625 12.258,26.55 27.407,27.332" /><path
             id="path192"
             style="fill:#e63820;fill-opacity:1;fill-rule:nonzero;stroke:none"
             d="m 1164.25,1017.45 c -2.25,19.08 -11.37,75.97 -11.37,75.97 -0.17,2.08 -0.54,4.24 -0.98,6.28 l -0.05,0.21 c -4.7,20.53 -23.15,35.91 -45.25,35.91 -15.97,0 -30,-8.03 -38.36,-20.15 h -55.29 c -8.4,12.12 -22.481,20.15 -38.388,20.15 -22.062,0 -40.515,-15.38 -45.261,-35.91 h -0.059 v -0.21 c -0.48,-2.04 -0.758,-4.2 -0.906,-6.28 0,0 -9.18,-56.89 -11.441,-75.97 -0.973,-7.84 -1.833,-20.798 11.003,-29.442 12.516,-8.418 23.407,-7.125 33.551,-1.285 11.809,6.863 20.703,20.427 43.191,50.077 1.69,2.19 4,5.1 9.88,4.88 l 28.32,0.22 23.79,-0.22 c 5.92,0.22 8.19,-2.69 9.86,-4.88 22.45,-29.65 31.4,-43.214 43.16,-50.077 10.19,-5.84 21.09,-7.133 33.54,1.285 12.9,8.644 11.98,21.602 11.06,29.442" /><path
             id="path194"
             style="fill:#fbfcfc;fill-opacity:1;fill-rule:nonzero;stroke:none"
             d="m 1144.29,1090.47 c 0,-20.38 -16.6,-36.89 -37.1,-36.89 -20.46,0 -37.06,16.51 -37.06,36.89 0,20.37 16.6,36.83 37.06,36.83 20.5,0 37.1,-16.46 37.1,-36.83" /><path
             id="path196"
             style="fill:#fbfcfc;fill-opacity:1;fill-rule:nonzero;stroke:none"
             d="m 1010.26,1090.47 c 0,-20.38 -16.561,-36.89 -37.053,-36.89 -20.441,0 -37.055,16.51 -37.055,36.89 0,20.37 16.614,36.83 37.055,36.83 20.492,0 37.053,-16.46 37.053,-36.83" /><path
             id="path198"
             style="fill:#e63820;fill-opacity:1;fill-rule:nonzero;stroke:none"
             d="m 1116.95,1112.13 c 0,-5.25 -4.37,-9.6 -9.76,-9.6 -5.35,0 -9.71,4.35 -9.71,9.6 0,5.36 4.36,9.65 9.71,9.65 5.39,0 9.76,-4.29 9.76,-9.65" /><path
             id="path200"
             style="fill:#ecb50e;fill-opacity:1;fill-rule:nonzero;stroke:none"
             d="m 1116.95,1068.7 c 0,-5.26 -4.37,-9.59 -9.76,-9.59 -5.35,0 -9.71,4.33 -9.71,9.59 0,5.36 4.36,9.65 9.71,9.65 5.39,0 9.76,-4.29 9.76,-9.65" /><path
             id="path202"
             style="fill:#37af64;fill-opacity:1;fill-rule:nonzero;stroke:none"
             d="m 1085.34,1100.12 c 5.39,0 9.7,-4.35 9.7,-9.65 0,-5.36 -4.31,-9.65 -9.7,-9.65 -5.34,0 -9.7,4.29 -9.7,9.65 0,5.3 4.36,9.65 9.7,9.65" /><path
             id="path204"
             style="fill:#498dd2;fill-opacity:1;fill-rule:nonzero;stroke:none"
             d="m 1129.03,1100.12 c 5.39,0 9.71,-4.35 9.71,-9.65 0,-5.36 -4.32,-9.65 -9.71,-9.65 -5.33,0 -9.71,4.29 -9.71,9.65 0,5.3 4.38,9.65 9.71,9.65" /><path
             id="path206"
             style="fill:#182d3d;fill-opacity:1;fill-rule:nonzero;stroke:none"
             d="m 986.957,1099.05 h -6.309 v 6.33 c 0,3.85 -3.183,7.02 -7.074,7.02 h -3.121 c -3.937,0 -7.117,-3.17 -7.117,-7.02 v -6.33 h -6.363 c -3.832,0 -7.016,-3.22 -7.016,-7.09 v -3.05 c 0,-3.9 3.184,-7.02 7.016,-7.02 h 6.363 v -6.33 c 0,-3.86 3.18,-7.07 7.117,-7.07 h 3.121 c 3.891,0 7.074,3.21 7.074,7.07 v 6.33 h 6.309 c 3.938,0 7.121,3.12 7.121,7.02 v 3.05 c 0,3.87 -3.183,7.09 -7.121,7.09" /><path
             id="path208"
             style="fill:#182d3d;fill-opacity:1;fill-rule:nonzero;stroke:none"
             d="m 1035.56,1076.8 -0.7,-0.75 h -10.04 l -0.74,0.75 v 6.16 l 0.74,0.75 h 10.04 l 0.7,-0.75 v -6.16" /><path
             id="path210"
             style="fill:#182d3d;fill-opacity:1;fill-rule:nonzero;stroke:none"
             d="m 1058.49,1076.8 -0.82,-0.75 h -9.96 l -0.77,0.75 v 6.16 l 0.77,0.75 h 9.96 l 0.82,-0.75 v -6.16" /><path
             id="path212"
             style="fill:#ecb50e;fill-opacity:1;fill-rule:nonzero;stroke:none"
             d="m 672.102,650.164 c -3.02,0.527 -20.875,0.93 -22.329,1.121 -2.699,0.336 -5.144,1.567 -6.214,2.035 -2.094,0.957 -4.727,1.348 -13.942,1.278 -24.543,-0.196 -44.445,0.019 -49.601,0.019 -3.84,0 -63.176,-24.207 -64.844,-26.863 -0.887,-0.891 -3.477,-11.516 -5.43,-11.524 -20.762,-0.136 -53.176,-0.421 -78.008,-0.675 0,-52.606 0.969,-127.133 0.969,-127.133 l 74.301,0.027 c 0,0 24.578,-14.238 31.914,-14.238 13.332,-0.02 30.148,-0.32 82.664,0.098 l -2.516,20.75 v 120.332 h -14.472 l 0.164,1.543 c 0,0 15.355,7.996 18.859,9.5 1.598,0.695 28.164,2.121 33.016,3.644 15.316,4.863 20.265,19.266 15.469,20.086" /><path
             id="path214"
             style="fill:#ecb50e;fill-opacity:1;fill-rule:nonzero;stroke:none"
             d="m 675.098,511.762 c -1.606,-1.274 -2.348,-5.973 -1.774,-6.903 l -100.234,-12.558 6.07,29.258 95.938,-9.797" /><path
             id="path216"
             style="fill:#ecb50e;fill-opacity:1;fill-rule:nonzero;stroke:none"
             d="m 694.117,547.938 c -1.043,-1.336 -1.437,-6.043 -0.859,-6.981 l -100.653,-12.519 6.079,29.265 95.433,-9.765" /><path
             id="path218"
             style="fill:#ecb50e;fill-opacity:1;fill-rule:nonzero;stroke:none"
             d="m 685.168,584.473 c -0.809,-1.868 1.492,-5.723 2.066,-6.672 l -102.718,-12.676 6.074,29.27 94.578,-9.922" /><path
             id="path220"
             style="fill:#ecb50e;fill-opacity:1;fill-rule:nonzero;stroke:none"
             d="m 777.984,598.496 c 0,-8.613 -4.172,-14.387 -15.605,-14.387 h -145.09 c -11.445,0 -20.797,7.043 -20.797,15.657 0,8.593 9.352,15.625 20.797,15.625 h 145.09 c 11.433,0 15.605,-8.301 15.605,-16.895" /><path
             id="path222"
             style="fill:#ecb50e;fill-opacity:1;fill-rule:nonzero;stroke:none"
             d="m 732.488,563.152 c 0,-8.593 -4.496,-15.632 -15.933,-15.632 H 614.094 c -11.434,-0.012 -20.813,7.031 -20.813,15.632 0,8.614 9.379,15.645 20.813,15.645 h 102.453 c 11.445,0 15.941,-7.031 15.941,-15.645" /><path
             id="path224"
             style="fill:#ecb50e;fill-opacity:1;fill-rule:nonzero;stroke:none"
             d="m 717.312,528.438 c 0,-8.618 -5.101,-17.477 -16.546,-17.477 h -99.09 c -11.434,0 -20.793,6.988 -20.793,15.609 0,8.625 9.359,15.657 20.805,15.645 l 99.078,0.012 c 11.445,0 16.554,-5.188 16.546,-13.789" /><path
             id="path226"
             style="fill:#ecb50e;fill-opacity:1;fill-rule:nonzero;stroke:none"
             d="m 697.012,491.059 c 0,-8.59 -6.426,-16.75 -17.864,-16.75 h -96.359 c -11.441,0 -20.801,7.043 -20.801,15.632 0,8.61 9.36,15.629 20.801,15.629 h 98.738 c 11.422,0 15.485,-5.879 15.485,-14.511" /><path
             id="path228"
             style="fill:#365a73;fill-opacity:1;fill-rule:nonzero;stroke:none"
             d="M 488.031,635.312 10.2227,635.281 V 462.148 l 477.8083,0.032 v 173.132" /><path
             id="path230"
             style="fill:#284456;fill-opacity:1;fill-rule:nonzero;stroke:none"
             d="m 488.031,549.395 -477.8083,-0.02 v -87.227 l 477.8083,0.032 v 87.215" /><path
             id="path232"
             style="fill:#f25231;fill-opacity:1;fill-rule:nonzero;stroke:none"
             d="M 475.238,640.711 0,640.691 V 457.059 l 475.238,0.011 v 183.641" /><path
             id="path234"
             style="fill:#e63521;fill-opacity:1;fill-rule:nonzero;stroke:none"
             d="M 475.238,548.652 0,548.633 v -91.574 l 475.238,0.011 v 91.582" /><path
             id="path236"
             style="fill:#cd3423;fill-opacity:1;fill-rule:nonzero;stroke:none"
             d="m 406.207,640.711 0.004,-183.66 h 4.34 l -0.016,183.66 h -4.328" /><path
             id="path238"
             style="fill:#cd3423;fill-opacity:1;fill-rule:nonzero;stroke:none"
             d="m 406.211,457.051 h 4.33984 v 91.7656 H 406.211 Z" /><path
             id="path240"
             style="fill:#fdfefe;fill-opacity:1;fill-rule:nonzero;stroke:none"
             d="m 453.938,484.25 c -0.008,-3.391 -2.782,-6.129 -6.2,-6.129 -3.418,0 -6.199,2.738 -6.199,6.129 0,3.422 2.781,6.141 6.199,6.141 3.414,0 6.192,-2.719 6.2,-6.141" /><path
             id="path242"
             style="fill:#ecb50e;fill-opacity:1;fill-rule:nonzero;stroke:none"
             d="m 615.266,732.754 c -3.016,-0.527 -20.871,-0.938 -22.332,-1.125 -2.704,-0.32 -5.145,-1.57 -6.211,-2.031 -2.09,-0.946 -4.727,-1.336 -13.934,-1.278 -24.562,0.184 -44.461,-0.019 -49.609,-0.019 -3.84,0 -63.168,24.219 -64.84,26.859 -0.883,0.895 -3.477,10.211 -5.434,10.231 -20.758,0.121 -53.176,0.414 -78.008,0.656 0,52.613 0.965,128.457 0.965,128.457 l 74.297,-0.027 c 0,0 24.59,14.222 31.926,14.234 13.336,0.019 30.148,0.312 82.664,-0.098 l -2.508,-20.754 V 767.527 h -14.488 l 0.172,-1.55 c 0,0 15.355,-7.981 18.855,-9.5 1.598,-0.684 28.168,-2.106 33.016,-3.637 15.32,-4.863 20.269,-19.258 15.469,-20.086" /><path
             id="path244"
             style="fill:#ecb50e;fill-opacity:1;fill-rule:nonzero;stroke:none"
             d="m 618.262,871.156 c -1.602,1.266 -2.344,5.973 -1.774,6.895 l -100.226,12.574 6.066,-29.258 95.934,9.789" /><path
             id="path246"
             style="fill:#ecb50e;fill-opacity:1;fill-rule:nonzero;stroke:none"
             d="m 637.285,834.984 c -1.051,1.336 -1.433,6.043 -0.859,6.989 l -100.649,12.511 6.075,-29.261 95.433,9.761" /><path
             id="path248"
             style="fill:#ecb50e;fill-opacity:1;fill-rule:nonzero;stroke:none"
             d="m 628.336,798.445 c -0.809,1.867 1.492,5.735 2.059,6.664 l -102.715,12.684 6.07,-29.273 94.586,9.925" /><path
             id="path250"
             style="fill:#ecb50e;fill-opacity:1;fill-rule:nonzero;stroke:none"
             d="m 721.152,784.422 c 0,8.613 -4.172,14.387 -15.605,14.387 H 560.453 c -11.445,0 -20.805,-7.043 -20.805,-15.653 0,-8.594 9.36,-15.629 20.805,-15.629 h 145.094 c 11.433,0 15.605,8.297 15.605,16.895" /><path
             id="path252"
             style="fill:#ecb50e;fill-opacity:1;fill-rule:nonzero;stroke:none"
             d="m 675.66,819.758 c 0,8.601 -4.5,15.64 -15.937,15.64 H 557.258 c -11.43,0.016 -20.809,-7.027 -20.809,-15.64 0,-8.606 9.379,-15.637 20.809,-15.637 h 102.453 c 11.449,0 15.949,7.031 15.949,15.637" /><path
             id="path254"
             style="fill:#ecb50e;fill-opacity:1;fill-rule:nonzero;stroke:none"
             d="m 660.48,854.484 c 0,8.61 -5.097,17.489 -16.542,17.489 h -99.094 c -11.43,0 -20.789,-7.012 -20.789,-15.625 0,-8.625 9.359,-15.653 20.804,-15.645 l 99.079,-0.008 c 11.445,0 16.546,5.176 16.542,13.789" /><path
             id="path256"
             style="fill:#ecb50e;fill-opacity:1;fill-rule:nonzero;stroke:none"
             d="m 640.18,891.844 c 0,8.613 -6.426,16.769 -17.86,16.769 h -96.367 c -11.445,0 -20.808,-7.043 -20.808,-15.64 0,-8.61 9.363,-15.629 20.808,-15.629 h 98.742 c 11.422,0 15.485,5.89 15.485,14.5" /><path
             id="path258"
             style="fill:#365a73;fill-opacity:1;fill-rule:nonzero;stroke:none"
             d="m 431.199,747.324 -420.9763,0.02 V 920.477 L 431.199,920.453 V 747.324" /><path
             id="path260"
             style="fill:#284456;fill-opacity:1;fill-rule:nonzero;stroke:none"
             d="m 431.199,833.234 -420.9763,0.028 v 87.215 l 420.9763,-0.024 v -87.219" /><path
             id="path262"
             style="fill:#f25231;fill-opacity:1;fill-rule:nonzero;stroke:none"
             d="M 418.398,742.207 0,742.227 V 925.859 L 418.398,925.84 V 742.207" /><path
             id="path264"
             style="fill:#e63521;fill-opacity:1;fill-rule:nonzero;stroke:none"
             d="M 418.398,834.262 0,834.281 v 91.578 l 418.398,-0.019 v -91.578" /><path
             id="path266"
             style="fill:#cd3423;fill-opacity:1;fill-rule:nonzero;stroke:none"
             d="m 349.371,742.207 0.008,183.664 h 4.336 l -0.008,-183.664 h -4.336" /><path
             id="path268"
             style="fill:#cd3423;fill-opacity:1;fill-rule:nonzero;stroke:none"
             d="m 349.379,834.094 h 4.33594 v 91.7773 H 349.379 Z" /><path
             id="path270"
             style="fill:#fdfefe;fill-opacity:1;fill-rule:nonzero;stroke:none"
             d="m 397.105,898.672 c -0.011,3.387 -2.781,6.125 -6.199,6.125 -3.429,0 -6.199,-2.738 -6.199,-6.125 0,-3.426 2.77,-6.145 6.199,-6.145 3.414,0 6.188,2.719 6.199,6.145" /><path
             id="path272"
             style="fill:#14202a;fill-opacity:1;fill-rule:nonzero;stroke:none"
             d="m 2053.6,369.391 c 0,-1.332 -1.01,-2.411 -2.26,-2.411 h -24.35 c -1.24,0 -2.27,1.079 -2.27,2.411 v 3.699 c 0,1.351 1.03,2.43 2.27,2.43 h 24.35 c 1.25,0 2.26,-1.079 2.26,-2.43 v -3.699" /><path
             id="path274"
             style="fill:#14202a;fill-opacity:1;fill-rule:nonzero;stroke:none"
             d="m 1914.52,373.07 c 0,-1.211 -1.02,-2.199 -2.26,-2.199 h -19.34 c -1.26,0 -2.28,0.988 -2.28,2.199 v 3.371 c 0,1.207 1.02,2.2 2.28,2.2 h 19.34 c 1.24,0 2.26,-0.993 2.26,-2.2 v -3.371" /><path
             id="path276"
             style="fill:#14202a;fill-opacity:1;fill-rule:nonzero;stroke:none"
             d="m 1907.91,369.211 c 0,-1.742 -1.01,-3.16 -2.25,-3.16 h -6.16 c -1.23,0 -2.25,1.418 -2.25,3.16 v 4.848 c 0,1.73 1.02,3.16 2.25,3.16 h 6.16 c 1.24,0 2.25,-1.43 2.25,-3.16 v -4.848" /><path
             id="path278"
             style="fill:#eae6e1;fill-opacity:1;fill-rule:nonzero;stroke:none"
             d="m 2073.64,236.941 c 0,-6.019 -5.1,-10.972 -11.31,-10.972 h -184.16 c -6.23,0 -11.32,4.953 -11.32,10.972 v 121.348 c 0,6.031 5.09,10.973 11.32,10.973 h 184.16 c 6.21,0 11.31,-4.942 11.31,-10.973 V 236.941" /><path
             id="path280"
             style="fill:#14202a;fill-opacity:1;fill-rule:nonzero;stroke:none"
             d="m 1866.85,238.191 h 206.789 V 359.73 H 1866.85 Z" /><path
             id="path282"
             style="fill:#eae6e1;fill-opacity:1;fill-rule:nonzero;stroke:none"
             d="m 1866.85,342.199 h 17.3 c 4.58,0 8.35,-5.609 8.35,-12.461 V 265.5 c 0,-6.859 -3.77,-12.461 -8.35,-12.461 h -17.3 v 89.16" /><path
             id="path284"
             style="fill:#eae6e1;fill-opacity:1;fill-rule:nonzero;stroke:none"
             d="m 2073.64,341.711 h -17.28 c -4.6,0 -8.36,-5.602 -8.36,-12.441 v -64.25 c 0,-6.86 3.76,-12.461 8.36,-12.461 h 17.28 v 89.152" /><path
             id="path286"
             style="fill:#c9dedb;fill-opacity:1;fill-rule:nonzero;stroke:none"
             d="m 2022.17,297.141 c 0,-27.539 -22.96,-49.871 -51.32,-49.871 -28.35,0 -51.32,22.332 -51.32,49.871 0,27.539 22.97,49.871 51.32,49.871 28.36,0 51.32,-22.332 51.32,-49.871" /><path
             id="path288"
             style="fill:#245889;fill-opacity:1;fill-rule:nonzero;stroke:none"
             d="m 2017.68,297.141 c 0,-25.129 -20.97,-45.493 -46.83,-45.493 -25.85,0 -46.81,20.364 -46.81,45.493 0,25.109 20.96,45.48 46.81,45.48 25.86,0 46.83,-20.371 46.83,-45.48" /><path
             id="path290"
             style="fill:#14202a;fill-opacity:1;fill-rule:nonzero;stroke:none"
             d="m 2016.25,297.141 c 0,-24.36 -20.32,-44.11 -45.4,-44.11 -25.08,0 -45.4,19.75 -45.4,44.11 0,24.359 20.32,44.121 45.4,44.121 25.08,0 45.4,-19.762 45.4,-44.121" /><path
             id="path292"
             style="fill:#3277a7;fill-opacity:1;fill-rule:nonzero;stroke:none"
             d="m 2009.3,297.141 c 0,-20.629 -17.21,-37.36 -38.45,-37.36 -21.24,0 -38.45,16.731 -38.45,37.36 0,20.621 17.21,37.359 38.45,37.359 21.24,0 38.45,-16.738 38.45,-37.359" /><path
             id="path294"
             style="fill:#2c6a96;fill-opacity:1;fill-rule:nonzero;stroke:none"
             d="m 1996.11,325.289 -38.75,-44.019 -11.21,-12.731 c 16.14,-13.18 40.22,-11.289 53.92,4.301 13.74,15.609 11.94,39 -3.96,52.449" /><path
             id="path296"
             style="fill:#babbbc;fill-opacity:1;fill-rule:nonzero;stroke:none"
             d="m 1991.23,297.141 c 0,-10.93 -9.12,-19.801 -20.38,-19.801 -11.25,0 -20.37,8.871 -20.37,19.801 0,10.929 9.12,19.781 20.37,19.781 11.26,0 20.38,-8.852 20.38,-19.781" /><path
             id="path298"
             style="fill:#f8fbfd;fill-opacity:1;fill-rule:nonzero;stroke:none"
             d="m 1987.49,297.141 c 0,-8.93 -7.45,-16.161 -16.64,-16.161 -9.18,0 -16.63,7.231 -16.63,16.161 0,8.929 7.45,16.16 16.63,16.16 9.19,0 16.64,-7.231 16.64,-16.16" /><path
             id="path300"
             style="fill:#53c6cb;fill-opacity:1;fill-rule:nonzero;stroke:none"
             d="m 1981.36,297.141 c 0,-5.653 -4.69,-10.219 -10.51,-10.219 -5.81,0 -10.52,4.566 -10.52,10.219 0,5.648 4.71,10.211 10.52,10.211 5.82,0 10.51,-4.563 10.51,-10.211" /><path
             id="path302"
             style="fill:#182d3d;fill-opacity:1;fill-rule:nonzero;stroke:none"
             d="m 1957.07,355.969 h 26.3594 v 25.0195 H 1957.07 Z" /><path
             id="path304"
             style="fill:#14202a;fill-opacity:1;fill-rule:nonzero;stroke:none"
             d="m 1999.69,396.129 c 0,2.012 -1.7,3.66 -3.78,3.66 h -51.33 c -2.08,0 -3.77,-1.648 -3.77,-3.66 v -13.84 c 0,-2 1.69,-3.648 3.77,-3.648 h 51.33 c 2.08,0 3.78,1.648 3.78,3.648 v 13.84" /><path
             id="path306"
             style="fill:#babbbc;fill-opacity:1;fill-rule:nonzero;stroke:none"
             d="m 1996.1,393.93 c 0,1.371 -1.5,2.492 -3.31,2.492 h -45.08 c -1.82,0 -3.32,-1.121 -3.32,-2.492 v -9.43 c 0,-1.371 1.5,-2.488 3.32,-2.488 h 45.08 c 1.81,0 3.31,1.117 3.31,2.488 v 9.43" /><path
             id="path308"
             style="fill:#f8fbfd;fill-opacity:1;fill-rule:nonzero;stroke:none"
             d="m 1995.05,393.43 c 0,1.242 -1.43,2.242 -3.17,2.242 h -43.26 c -1.74,0 -3.18,-1 -3.18,-2.242 V 385 c 0,-1.238 1.44,-2.238 3.18,-2.238 h 43.26 c 1.74,0 3.17,1 3.17,2.238 v 8.43" /><path
             id="path310"
             style="fill:#14202a;fill-opacity:1;fill-rule:nonzero;stroke:none"
             d="m 2012.5,357.371 c 0.6,-1.039 0.09,-1.902 -1.15,-1.902 h -82.2 c -1.25,0 -1.77,0.863 -1.15,1.902 l 9.06,15.481 c 0.61,1.046 2.13,1.898 3.38,1.898 h 59.6 c 1.26,0 2.78,-0.852 3.39,-1.898 l 9.07,-15.481" /><path
             id="path312"
             style="fill:#fbfcfc;fill-opacity:1;fill-rule:nonzero;stroke:none"
             d="m 1500.29,1118.39 c -0.7,3.75 -0.24,23.16 -0.24,27.09 0,37.45 32.58,67.8 72.78,67.8 40.21,0 72.78,-30.35 72.78,-67.8 0,-3.93 0.48,-23.94 -0.23,-27.69 h 13.39 c 0.6,3.76 0,23.78 0,27.69 0,44.22 -38.47,80.06 -85.94,80.06 -47.45,0 -85.92,-35.84 -85.92,-80.06 0,-3.91 -0.6,-23.32 0,-27.09 h 13.38" /><path
             id="path314"
             style="fill:#f68515;fill-opacity:1;fill-rule:nonzero;stroke:none"
             d="m 1639.96,1139.73 v -89.69 c 22,0.19 43.61,17.42 43.61,44.85 0,26.93 -21.61,44.65 -43.61,44.84" /><path
             id="path316"
             style="fill:#ffffff;fill-opacity:1;fill-rule:nonzero;stroke:none"
             d="m 1683.57,1094.96 c 0,13.14 -5.17,24.05 -12.99,31.84 1.44,-9.79 2.26,-20.42 2.26,-31.85 0,-11.53 -0.81,-22.2 -2.21,-31.99 7.8,7.72 12.94,18.64 12.94,32" /><path
             id="path318"
             style="fill:#182c3a;fill-opacity:1;fill-rule:nonzero;stroke:none"
             d="m 1627.14,1053.23 c 0,-3.93 3.15,-7.13 6.96,-7.13 3.83,0 6.97,3.2 6.97,7.13 v 83.3 c 0,3.92 -3.14,7.13 -6.97,7.13 -3.81,0 -6.96,-3.21 -6.96,-7.13 v -83.3" /><path
             id="path320"
             style="fill:#f68515;fill-opacity:1;fill-rule:nonzero;stroke:none"
             d="m 1504.85,1139.73 v -89.69 c -22,0.19 -43.62,17.42 -43.62,44.85 0,26.93 21.62,44.65 43.62,44.84" /><path
             id="path322"
             style="fill:#182c3a;fill-opacity:1;fill-rule:nonzero;stroke:none"
             d="m 1517.66,1053.23 c 0,-3.93 -3.14,-7.13 -6.97,-7.13 -3.83,0 -6.96,3.2 -6.96,7.13 v 83.3 c 0,3.92 3.13,7.13 6.96,7.13 3.83,0 6.97,-3.21 6.97,-7.13 v -83.3" /><path
             id="path324"
             style="fill:#ffffff;fill-opacity:1;fill-rule:nonzero;stroke:none"
             d="m 1461.23,1094.96 c 0,13.14 5.16,24.06 12.98,31.84 -1.42,-9.78 -2.25,-20.41 -2.25,-31.84 0,-11.54 0.81,-22.21 2.21,-32 -7.79,7.72 -12.94,18.64 -12.94,32" /><path
             id="path326"
             style="fill:#fdfefe;fill-opacity:1;fill-rule:nonzero;stroke:none"
             d="m 757.883,610.449 c 1.34,0.703 5.867,0.723 8.222,0.254 5.672,-1.133 6.954,-4.191 6.946,-10.312 -0.02,-8.731 -1.446,-9.375 -5.121,-11.164 -2.285,-1.082 -9.356,-0.848 -10.196,-0.184 -0.793,0.605 -2.238,1.617 -2.238,10.437 0,9.786 1.313,10.442 2.387,10.969" /><path
             id="path328"
             style="fill:#fdfefe;fill-opacity:1;fill-rule:nonzero;stroke:none"
             d="m 700.641,793.871 c 1.339,0.699 5.875,0.723 8.214,0.254 5.68,-1.133 6.965,-4.191 6.95,-10.313 -0.008,-8.734 -1.446,-9.386 -5.114,-11.164 -2.289,-1.086 -9.363,-0.859 -10.203,-0.195 -0.781,0.617 -2.226,1.629 -2.226,10.445 0,9.79 1.308,10.442 2.379,10.973" /><path
             id="path330"
             style="fill:#172b3a;fill-opacity:1;fill-rule:nonzero;stroke:none"
             d="m 2158.29,460.082 c -0.02,-6.453 4.14,-11.742 9.19,-11.742 L 2337.44,448 c 4.99,-0.031 9.12,5.25 9.18,11.68 l 0.65,310.543 c 0,6.453 -4.12,11.703 -9.13,11.703 l -169.96,0.344 c -5.06,0 -9.25,-5.25 -9.28,-11.672 l -0.61,-310.516" /><path
             id="path332"
             style="fill:#53c6cb;fill-opacity:1;fill-rule:nonzero;stroke:none"
             d="m 2166.26,483.121 c 0,-1.41 1.22,-2.59 2.68,-2.59 l 167.15,-0.359 c 1.47,0 2.63,1.187 2.64,2.598 l 0.58,264.32 c 0,1.445 -1.21,2.652 -2.68,2.652 l -167.16,0.356 c -1.44,0 -2.68,-1.192 -2.68,-2.668 l -0.53,-264.309" /><path
             id="path334"
             style="fill:#7ed4dd;fill-opacity:1;fill-rule:nonzero;stroke:none"
             d="m 2336.09,480.172 v 0 l -81.28,0.18 V 749.91 l 81.82,-0.168 c 1.47,0 2.68,-1.207 2.68,-2.652 l -0.58,-264.32 c -0.01,-1.411 -1.17,-2.598 -2.64,-2.598" /><path
             id="path336"
             style="fill:#ffffff;fill-opacity:1;fill-rule:nonzero;stroke:none"
             d="m 2258.76,604.012 c -12.03,0 -21.79,9.718 -21.79,21.633 0,11.953 9.76,21.667 21.79,21.667 11.99,0 21.75,-9.714 21.75,-21.667 0,-11.915 -9.76,-21.633 -21.75,-21.633 z m 0,46.515 c -13.79,0 -25.01,-11.172 -25.01,-24.882 0,-13.692 11.22,-24.836 25.01,-24.836 13.77,0 24.97,11.144 24.97,24.836 0,13.71 -11.2,24.882 -24.97,24.882" /><path
             id="path338"
             style="fill:#ffffff;fill-opacity:1;fill-rule:nonzero;stroke:none"
             d="m 2258.77,594.121 c -17.52,0 -31.76,14.16 -31.76,31.512 0,17.422 14.24,31.582 31.76,31.582 17.48,0 31.68,-14.16 31.68,-31.582 0,-17.352 -14.2,-31.512 -31.68,-31.512 z m 0,67.227 c -19.81,0 -35.9,-16.016 -35.9,-35.715 0,-19.637 16.09,-35.653 35.9,-35.653 19.77,0 35.83,16.016 35.83,35.653 0,19.699 -16.06,35.715 -35.83,35.715" /><path
             id="path340"
             style="fill:#ecb50e;fill-opacity:1;fill-rule:nonzero;stroke:none"
             d="m 2252.39,447.988 -83.19,-0.179 c -0.95,-0.028 -1.88,0.203 -2.78,0.531 l -0.38,0.051 -0.8,0.308 -0.93,0.352 -0.44,0.281 c -3.04,1.797 -5.35,5.469 -5.35,9.93 v 0.91 c 0,10.066 0,21.367 0.03,30.828 h 0.04 c 0,2.129 0,4.289 0,6.5 0,8.551 0.03,14.449 0.03,14.449 l -0.03,0.039 c 0.12,58.403 0.53,89.516 0.53,93.86 0,4.55 0.53,5.91 2.72,19.855 3.94,25.195 1.68,35.145 1.17,37.012 -0.71,2.656 -10.02,22.226 -14.93,17.879 -8.13,-7.137 -23.88,-60.703 -27.64,-69.414 -1,-2.305 -1.85,-4.246 -1.8,-7.684 0.09,-7.648 1.77,-83.215 3.08,-87.047 2.22,-6.449 25.49,-69.367 26.88,-73.07 0.42,-1.949 -0.07,-12.688 -0.37,-56.598 53.27,0 148.99,0 148.99,0 l -0.32,46.438 10.96,14.832 c 0,0 -25.36,-0.153 -55.47,-0.063" /><path
             id="path342"
             style="fill:#f8f6ec;fill-opacity:1;fill-rule:nonzero;stroke:none"
             d="m 2149.31,681.219 c 0,0 -0.07,-2.02 -4.66,-12.5 -4.32,-9.883 -6.48,-13.125 -7.47,-14.442 l -1.5,0.664 c 0,0 9.07,25.84 13.63,26.278" /><path
             id="path344"
             style="fill:#fdfefe;fill-opacity:1;fill-rule:nonzero;stroke:none"
             d="m 2135.93,3.76172 h 171.93 v 400.93 h -171.93 z" /><path
             id="path346"
             style="fill:#d5e8f0;fill-opacity:1;fill-rule:nonzero;stroke:none"
             d="m 2223.23,3.76172 h 84.6289 v 400.93 H 2223.23 Z" /><path
             id="path348"
             style="fill:#264051;fill-opacity:1;fill-rule:nonzero;stroke:none"
             d="m 2130.63,0 h 182.512 V 397.77 H 2130.63 Z" /><path
             id="path350"
             style="fill:#19222b;fill-opacity:1;fill-rule:nonzero;stroke:none"
             d="m 2223.85,0 h 89.2891 V 397.77 H 2223.85 Z" /><path
             id="path352"
             style="fill:#19222b;fill-opacity:1;fill-rule:nonzero;stroke:none"
             d="m 2130.63,331.27 h 182.562 v 4.08984 H 2130.63 Z" /><path
             id="path354"
             style="fill:#15171a;fill-opacity:1;fill-rule:nonzero;stroke:none"
             d="m 2223.85,331.27 h 89.3398 v 4.08984 H 2223.85 Z" /><path
             id="path356"
             style="fill:#fdfefe;fill-opacity:1;fill-rule:nonzero;stroke:none"
             d="m 2293.49,386.781 c 3.43,0 6.21,-2.801 6.21,-6.222 0,-3.418 -2.78,-6.2 -6.21,-6.2 -3.44,0 -6.21,2.782 -6.21,6.2 0,3.421 2.77,6.222 6.21,6.222" /><path
             id="path358"
             style="fill:#e9b30f;fill-opacity:1;fill-rule:nonzero;stroke:none"
             d="m 2361.72,603.68 c 0,0 -11.48,-3.692 -14.97,-4.473 v 7.258 l 14.97,-2.785" /><path
             id="path360"
             style="fill:#eeb40d;fill-opacity:1;fill-rule:nonzero;stroke:none"
             d="m 2379.49,630.438 c -3.02,9.023 -11.72,10.929 -18.62,8.867 -1.57,-0.45 -3.49,-1.082 -5.51,-1.785 0,0 -10.26,-3.508 -11.73,-4.239 -6.42,-3.254 -8.53,-11.093 -6.34,-19.941 l 0.77,-1.75 c 3.2,-9.578 11.88,-11.317 20.01,-9.055 1.1,0.305 2.37,0.688 3.7,1.145 l 7.1,2.785 c 1.29,0.613 2.45,1.191 3.48,1.719 7.44,3.964 10.03,9.91 7.81,19.921 l -0.67,2.333" /><path
             id="path362"
             style="fill:#fdfefe;fill-opacity:1;fill-rule:nonzero;stroke:none"
             d="m 2361.02,611.902 c -0.99,-0.886 -5.74,-2.449 -7.83,-2.605 -4.96,-0.402 -6.9,2.48 -8.34,7.613 -2.1,7.27 -1.41,9.289 1.21,11.625 1.65,1.434 7.6,2.918 8.47,2.567 0.81,-0.352 3.18,-5.332 4.23,-8.27 2.4,-6.633 2.99,-10.254 2.26,-10.93" /><path
             id="path364"
             style="fill:#e9b30f;fill-opacity:1;fill-rule:nonzero;stroke:none"
             d="m 2362.42,556.172 c 0,0 -11.84,-3.262 -15.89,-3.867 l 0.22,7.265 15.67,-3.398" /><path
             id="path366"
             style="fill:#eeb40d;fill-opacity:1;fill-rule:nonzero;stroke:none"
             d="m 2380.21,581.367 c -2.19,9.219 -9.02,11.875 -16.18,10.543 -1.52,-0.289 -3.32,-0.797 -5.34,-1.355 0,0 -9.79,-2.832 -11.25,-3.418 -6.3,-2.742 -8.93,-10.41 -7.46,-19.375 l 0.31,-1.903 c 2.29,-9.804 10.65,-12.101 18.53,-10.519 1.04,0.226 2.3,0.508 3.6,0.832 l 5.93,2.137 c 1.24,0.476 2.41,0.968 3.39,1.418 7.38,3.378 10.28,9.089 8.91,19.238 l -0.44,2.402" /><path
             id="path368"
             style="fill:#fdfefe;fill-opacity:1;fill-rule:nonzero;stroke:none"
             d="m 2361.99,563.113 c -1.03,-0.769 -5.67,-1.765 -7.64,-1.687 -4.75,0.136 -6.27,3.25 -7.07,8.465 -1.19,7.472 -0.35,9.386 2.4,11.418 1.69,1.269 7.45,2.07 8.28,1.621 0.68,-0.43 2.38,-5.684 3.06,-8.692 1.5,-6.855 1.75,-10.508 0.97,-11.125" /><path
             id="path370"
             style="fill:#e9b30f;fill-opacity:1;fill-rule:nonzero;stroke:none"
             d="m 2360.94,652.637 c 0,0 -10.42,-7.266 -14.01,-9.199 l 0.04,6.445 13.97,2.754" /><path
             id="path372"
             style="fill:#eeb40d;fill-opacity:1;fill-rule:nonzero;stroke:none"
             d="m 2366.97,680.449 c -5.14,7.989 -12.44,8.281 -18.78,4.668 -1.35,-0.754 -2.88,-1.847 -4.56,-3.008 0,0 -5.9,-4.121 -7.04,-5.156 -5.1,-4.648 -4.97,-12.754 -0.69,-20.762 l 0.94,-1.671 c 5.45,-8.497 14.1,-7.93 20.99,-3.875 0.93,0.546 2,1.25 3.11,1.992 l 2.44,2.168 c 1.04,0.879 1.98,1.699 2.77,2.48 5.85,5.574 6.64,11.942 2,21.082 l -1.18,2.082" /><path
             id="path374"
             style="fill:#fdfefe;fill-opacity:1;fill-rule:nonzero;stroke:none"
             d="m 2358.24,659.062 c -0.7,-1.093 -4.75,-3.566 -6.65,-4.14 -4.5,-1.418 -6.98,1.035 -9.47,5.703 -3.61,6.66 -3.42,8.77 -1.51,11.563 1.16,1.726 6.37,4.402 7.25,4.238 0.8,-0.176 4.18,-4.551 5.8,-7.188 3.71,-5.996 5.1,-9.375 4.58,-10.176" /><path
             id="path376"
             style="fill:#eeb40d;fill-opacity:1;fill-rule:nonzero;stroke:none"
             d="m 2373.4,532.891 c -1.57,8.574 -8.67,13.007 -15.19,12.195 -1.47,-0.176 -3.25,-0.457 -5.17,-0.77 0,0 -2.62,-0.304 -4.81,-0.8 -2.51,-0.547 -3.7,-0.762 -5.13,-1.204 -6.22,-2.058 -8.82,-9.246 -7.96,-18.289 l 0.2,-1.992 c 1.65,-9.949 9.3,-13.16 16.95,-12.39 1.01,0.078 2.24,0.25 3.49,0.461 l 5.03,1.168 c 1.23,0.359 2.35,0.71 3.35,1.05 7.21,2.578 10.29,7.981 9.56,18.188 l -0.32,2.383" /><path
             id="path378"
             style="fill:#e9b30f;fill-opacity:1;fill-rule:nonzero;stroke:none"
             d="m 2360.12,511.102 c 0,0 -7.27,-2.211 -13.48,-3.282 v 6.571 l 13.48,-3.289" /><path
             id="path380"
             style="fill:#fdfefe;fill-opacity:1;fill-rule:nonzero;stroke:none"
             d="m 2356.49,517.191 c -1.16,-0.64 -6.15,-1.011 -8.19,-0.671 -4.95,0.812 -6.11,4.101 -6.28,9.418 -0.24,7.539 0.87,9.335 4,10.972 1.94,1.008 7.98,0.844 8.81,0.473 1.22,-0.567 1.62,-4.082 1.95,-7.168 0.7,-7.012 0.62,-12.543 -0.29,-13.024" /><path
             id="path382"
             style="fill:#fdfefe;fill-opacity:1;fill-rule:nonzero;stroke:none"
             d="m 2018.34,605.508 h -124.02 v 5.476 h 124.02 c 15.28,0 27.72,12.434 27.72,27.727 v 55.957 c 0,18.301 14.89,33.191 33.2,33.191 h 79.03 v -5.476 h -79.03 c -15.29,0 -27.72,-12.442 -27.72,-27.715 v -55.957 c 0,-18.313 -14.88,-33.203 -33.2,-33.203" /><path
             id="path384"
             style="fill:#3f94a8;fill-opacity:1;fill-rule:nonzero;stroke:none"
             d="m 1625.72,271.699 -0.21,0.063 -0.51,0.828 0.42,65.859 1.02,1 67.69,-0.39 1.01,-1.02 -0.39,-65.879 -0.6,-0.871 z m 78.28,75.602 -84.66,0.5 -1.01,-1 -0.02,-3.051 -3.74,0.031 -1.03,-1.011 -0.47,-74.34 1.01,-1.032 84.63,-0.488 1.05,1.012 0.03,3.019 3.75,-0.031 1.03,1.031 0.44,74.348 -1.01,1.012" /><path
             id="path386"
             style="fill:#3f94a8;fill-opacity:1;fill-rule:nonzero;stroke:none"
             d="m 1625.98,271.57 c -0.98,0.02 -1.2,-0.179 -0.46,0.801 l 25.74,36.41 h 1.13 l 20.28,-28.679 0.53,-1.762 -0.03,-6.11 -0.94,-0.921 -46.25,0.261" /><path
             id="path388"
             style="fill:#3f94a8;fill-opacity:1;fill-rule:nonzero;stroke:none"
             d="m 1660.78,271.391 -0.36,0.738 16.45,21.473 1.12,0.007 16.22,-21.668 c 0.95,-1.062 0.53,-0.742 -0.38,-0.769 l -33.05,0.219" /><path
             id="path390"
             style="fill:#3f94a8;fill-opacity:1;fill-rule:nonzero;stroke:none"
             d="m 1687.55,325.531 c -0.01,-3.89 -3.15,-6.98 -7.08,-6.98 -3.86,0.039 -7.01,3.187 -6.98,7.051 0.03,3.859 3.18,6.98 7.05,6.98 3.94,-0.031 7.05,-3.191 7.01,-7.051" /><path
             id="path392"
             style="fill:#3f94a8;fill-opacity:1;fill-rule:nonzero;stroke:none"
             d="m 1411.5,1103.25 c -13.07,-0.02 -17.42,-11.98 -17.42,-11.98 0,0 -3.97,11.95 -17.45,11.95 -16.75,-0.03 -21.29,-13.86 -20.05,-22.13 2.99,-19.41 16.62,-20.05 37.53,-45.09 20.19,24.52 34.54,25.73 37.48,45.14 1.24,8.29 -3.36,22.11 -20.09,22.11" /><path
             id="path394"
             style="fill:#3f94a8;fill-opacity:1;fill-rule:nonzero;stroke:none"
             d="m 1721.96,1203.45 c -11.62,-0.02 -15.48,-10.66 -15.48,-10.66 0,0 -3.54,10.63 -15.54,10.63 -14.86,-0.02 -18.91,-12.32 -17.8,-19.67 2.64,-17.26 14.78,-17.83 33.36,-40.09 17.95,21.8 30.71,22.88 33.33,40.13 1.09,7.36 -3,19.67 -17.87,19.66" /><path
             id="path396"
             style="fill:#3f94a8;fill-opacity:1;fill-rule:nonzero;stroke:none"
             d="m 1508.56,1266.67 c -7.98,-0.02 -10.64,-7.32 -10.64,-7.32 0,0 -2.45,7.29 -10.69,7.29 -10.22,-0.01 -13.02,-8.47 -12.25,-13.52 1.82,-11.87 10.16,-12.26 22.95,-27.58 12.35,15 21.12,15.74 22.9,27.61 0.77,5.06 -2.05,13.52 -12.27,13.52" /><path
             id="path398"
             style="fill:#d5e8f0;fill-opacity:1;fill-rule:nonzero;stroke:none"
             d="m 1099.01,365.059 -1.66,-6.36 -170.842,45.16 1.148,4.411 171.354,-43.211" /><path
             id="path400"
             style="fill:#d5e8f0;fill-opacity:1;fill-rule:nonzero;stroke:none"
             d="m 929.254,414.41 c 4.664,-1.211 7.465,-5.941 6.266,-10.558 -1.211,-4.641 -5.965,-7.442 -10.641,-6.231 -4.66,1.199 -7.469,5.93 -6.258,10.559 1.215,4.64 5.969,7.41 10.633,6.23" /><path
             id="path402"
             style="fill:#14202a;fill-opacity:1;fill-rule:nonzero;stroke:none"
             d="m 1110.93,353 c 0,-8.289 -6.93,-15.031 -15.48,-15.031 -8.57,0 -15.49,6.742 -15.49,15.031 0,8.309 6.92,15.039 15.49,15.039 8.55,0 15.48,-6.73 15.48,-15.039" /><path
             id="path404"
             style="fill:#172b3a;fill-opacity:1;fill-rule:nonzero;stroke:none"
             d="m 1128.62,233.082 c 0,-10.184 -8.37,-18.5 -18.61,-18.5 H 930.145 c -10.223,0 -18.602,8.316 -18.602,18.5 v 109.316 c 0,10.184 8.379,18.512 18.602,18.512 h 179.865 c 10.24,0 18.61,-8.328 18.61,-18.512 V 233.082" /><path
             id="path406"
             style="fill:#fbfcfc;fill-opacity:1;fill-rule:nonzero;stroke:none"
             d="m 1022.71,287.738 c 0,-23.629 -19.27,-42.769 -43.038,-42.769 -23.766,0 -43.039,19.14 -43.039,42.769 0,23.633 19.273,42.793 43.039,42.793 23.768,0 43.038,-19.16 43.038,-42.793" /><path
             id="path408"
             style="fill:#46b4bf;fill-opacity:1;fill-rule:nonzero;stroke:none"
             d="m 1019.22,287.738 c 0,-21.718 -17.72,-39.297 -39.548,-39.297 -21.836,0 -39.555,17.579 -39.555,39.297 0,21.711 17.719,39.321 39.555,39.321 21.828,0 39.548,-17.61 39.548,-39.321" /><path
             id="path410"
             style="fill:#e83735;fill-opacity:1;fill-rule:nonzero;stroke:none"
             d="m 992.656,287.738 c 0,-7.117 -5.808,-12.906 -12.984,-12.906 -7.176,0 -12.977,5.789 -12.977,12.906 0,7.133 5.801,12.91 12.977,12.91 7.176,0 12.984,-5.777 12.984,-12.91" /><path
             id="path412"
             style="fill:#fbfcfc;fill-opacity:1;fill-rule:nonzero;stroke:none"
             d="m 989.762,287.738 c 0,-5.519 -4.52,-10.019 -10.09,-10.019 -5.563,0 -10.078,4.5 -10.078,10.019 0,5.524 4.515,10.032 10.078,10.032 5.57,0 10.09,-4.508 10.09,-10.032" /><path
             id="path414"
             style="fill:#e9f0f4;fill-opacity:1;fill-rule:nonzero;stroke:none"
             d="m 1083.66,232.531 c 0,-3.652 -2.99,-6.609 -6.66,-6.609 -3.69,0 -6.68,2.957 -6.68,6.609 0,3.649 2.99,6.641 6.68,6.641 3.67,0 6.66,-2.992 6.66,-6.641" /><path
             id="path416"
             style="fill:#e9f0f4;fill-opacity:1;fill-rule:nonzero;stroke:none"
             d="m 1103.32,232.531 c 0,-3.742 -3.05,-6.769 -6.8,-6.769 -3.76,0 -6.81,3.027 -6.81,6.769 0,3.731 3.05,6.77 6.81,6.77 3.75,0 6.8,-3.039 6.8,-6.77" /><path
             id="path418"
             style="fill:#46b4bf;fill-opacity:1;fill-rule:nonzero;stroke:none"
             d="m 1081.7,232.531 c 0,-2.582 -2.11,-4.679 -4.7,-4.679 -2.61,0 -4.71,2.097 -4.71,4.679 0,2.578 2.1,4.668 4.71,4.668 2.59,0 4.7,-2.09 4.7,-4.668" /><path
             id="path420"
             style="fill:#46b4bf;fill-opacity:1;fill-rule:nonzero;stroke:none"
             d="m 1101.3,232.531 c 0,-2.609 -2.14,-4.75 -4.78,-4.75 -2.63,0 -4.78,2.141 -4.78,4.75 0,2.61 2.15,4.739 4.78,4.739 2.64,0 4.78,-2.129 4.78,-4.739" /><path
             id="path422"
             style="fill:#46b4bf;fill-opacity:1;fill-rule:nonzero;stroke:none"
             d="m 1106.75,314.602 c 0,-2.032 -1.67,-3.704 -3.72,-3.704 h -57.69 c -2.05,0 -3.72,1.672 -3.72,3.704 v 8.75 c 0,2.039 1.67,3.707 3.72,3.707 h 57.69 c 2.05,0 3.72,-1.668 3.72,-3.707 v -8.75" /><path
             id="path424"
             style="fill:#fbfcfc;fill-opacity:1;fill-rule:nonzero;stroke:none"
             d="m 1047.14,323.082 h 0.7305 v 3.97656 h -0.7305 z" /><path
             id="path426"
             style="fill:#fbfcfc;fill-opacity:1;fill-rule:nonzero;stroke:none"
             d="m 1052.59,323.082 h 0.7305 v 3.97656 h -0.7305 z" /><path
             id="path428"
             style="fill:#fbfcfc;fill-opacity:1;fill-rule:nonzero;stroke:none"
             d="m 1058.04,323.082 h 0.7305 v 3.97656 h -0.7305 z" /><path
             id="path430"
             style="fill:#fbfcfc;fill-opacity:1;fill-rule:nonzero;stroke:none"
             d="m 1063.5,323.082 h 0.7188 v 3.97656 H 1063.5 Z" /><path
             id="path432"
             style="fill:#e83735;fill-opacity:1;fill-rule:nonzero;stroke:none"
             d="m 1066.58,327.059 h -2 l 2,-7.008 1.96,7.008 h -1.96" /><path
             id="path434"
             style="fill:#e83735;fill-opacity:1;fill-rule:nonzero;stroke:none"
             d="m 1066.58,310.898 h -2 l 2,8.063 1.96,-8.063 h -1.96" /><path
             id="path436"
             style="fill:#fbfcfc;fill-opacity:1;fill-rule:nonzero;stroke:none"
             d="m 1068.94,323.082 h 0.75 v 3.97656 h -0.75 z" /><path
             id="path438"
             style="fill:#fbfcfc;fill-opacity:1;fill-rule:nonzero;stroke:none"
             d="m 1074.39,323.082 h 0.75 v 3.97656 h -0.75 z" /><path
             id="path440"
             style="fill:#fbfcfc;fill-opacity:1;fill-rule:nonzero;stroke:none"
             d="m 1079.85,323.082 h 0.7188 v 3.97656 h -0.7188 z" /><path
             id="path442"
             style="fill:#fbfcfc;fill-opacity:1;fill-rule:nonzero;stroke:none"
             d="m 1085.31,323.082 h 0.7305 v 3.97656 h -0.7305 z" /><path
             id="path444"
             style="fill:#fbfcfc;fill-opacity:1;fill-rule:nonzero;stroke:none"
             d="m 1090.75,323.082 h 0.7383 v 3.97656 h -0.7383 z" /><path
             id="path446"
             style="fill:#fbfcfc;fill-opacity:1;fill-rule:nonzero;stroke:none"
             d="m 1096.22,323.082 h 0.7227 v 3.97656 h -0.7227 z" /><path
             id="path448"
             style="fill:#fbfcfc;fill-opacity:1;fill-rule:nonzero;stroke:none"
             d="m 1101.67,323.082 h 0.7266 v 3.97656 h -0.7266 z" /><path
             id="path450"
             style="fill:#fbfcfc;fill-opacity:1;fill-rule:nonzero;stroke:none"
             d="m 1047.14,310.898 h 0.7305 v 3.96094 h -0.7305 z" /><path
             id="path452"
             style="fill:#fbfcfc;fill-opacity:1;fill-rule:nonzero;stroke:none"
             d="m 1052.59,310.898 h 0.7305 v 3.96094 h -0.7305 z" /><path
             id="path454"
             style="fill:#fbfcfc;fill-opacity:1;fill-rule:nonzero;stroke:none"
             d="m 1058.04,310.898 h 0.7305 v 3.96094 h -0.7305 z" /><path
             id="path456"
             style="fill:#fbfcfc;fill-opacity:1;fill-rule:nonzero;stroke:none"
             d="m 1063.5,310.898 h 0.7188 v 3.96094 H 1063.5 Z" /><path
             id="path458"
             style="fill:#fbfcfc;fill-opacity:1;fill-rule:nonzero;stroke:none"
             d="m 1068.94,310.898 h 0.75 v 3.96094 h -0.75 z" /><path
             id="path460"
             style="fill:#fbfcfc;fill-opacity:1;fill-rule:nonzero;stroke:none"
             d="m 1074.39,310.898 h 0.75 v 3.96094 h -0.75 z" /><path
             id="path462"
             style="fill:#fbfcfc;fill-opacity:1;fill-rule:nonzero;stroke:none"
             d="m 1079.85,310.898 h 0.7188 v 3.96094 h -0.7188 z" /><path
             id="path464"
             style="fill:#fbfcfc;fill-opacity:1;fill-rule:nonzero;stroke:none"
             d="m 1085.31,310.898 h 0.7305 v 3.96094 h -0.7305 z" /><path
             id="path466"
             style="fill:#fbfcfc;fill-opacity:1;fill-rule:nonzero;stroke:none"
             d="m 1090.75,310.898 h 0.7383 v 3.96094 h -0.7383 z" /><path
             id="path468"
             style="fill:#fbfcfc;fill-opacity:1;fill-rule:nonzero;stroke:none"
             d="m 1096.22,310.898 h 0.7227 v 3.96094 h -0.7227 z" /><path
             id="path470"
             style="fill:#fbfcfc;fill-opacity:1;fill-rule:nonzero;stroke:none"
             d="m 1101.67,310.898 h 0.7266 v 3.96094 h -0.7266 z" /><path
             id="path472"
             style="fill:#fbfcfc;fill-opacity:1;fill-rule:nonzero;stroke:none"
             d="m 1053.42,293.25 c 0,-0.961 -0.91,-1.73 -2.03,-1.73 -1.13,0 -2.03,0.769 -2.03,1.73 0,0.961 0.9,1.738 2.03,1.738 1.12,0 2.03,-0.777 2.03,-1.738" /><path
             id="path474"
             style="fill:#fbfcfc;fill-opacity:1;fill-rule:nonzero;stroke:none"
             d="m 1059.88,293.25 c 0,-0.961 -0.91,-1.73 -2.03,-1.73 -1.12,0 -2.02,0.769 -2.02,1.73 0,0.961 0.9,1.738 2.02,1.738 1.12,0 2.03,-0.777 2.03,-1.738" /><path
             id="path476"
             style="fill:#fbfcfc;fill-opacity:1;fill-rule:nonzero;stroke:none"
             d="m 1066.34,293.25 c 0,-0.961 -0.92,-1.73 -2.03,-1.73 -1.12,0 -2.04,0.769 -2.04,1.73 0,0.961 0.92,1.738 2.04,1.738 1.11,0 2.03,-0.777 2.03,-1.738" /><path
             id="path478"
             style="fill:#fbfcfc;fill-opacity:1;fill-rule:nonzero;stroke:none"
             d="m 1072.8,293.25 c 0,-0.961 -0.91,-1.73 -2.03,-1.73 -1.12,0 -2.03,0.769 -2.03,1.73 0,0.961 0.91,1.738 2.03,1.738 1.12,0 2.03,-0.777 2.03,-1.738" /><path
             id="path480"
             style="fill:#fbfcfc;fill-opacity:1;fill-rule:nonzero;stroke:none"
             d="m 1079.25,293.25 c 0,-0.961 -0.9,-1.73 -2.01,-1.73 -1.14,0 -2.05,0.769 -2.05,1.73 0,0.961 0.91,1.738 2.05,1.738 1.11,0 2.01,-0.777 2.01,-1.738" /><path
             id="path482"
             style="fill:#fbfcfc;fill-opacity:1;fill-rule:nonzero;stroke:none"
             d="m 1085.71,293.25 c 0,-0.961 -0.9,-1.73 -2.03,-1.73 -1.12,0 -2.03,0.769 -2.03,1.73 0,0.961 0.91,1.738 2.03,1.738 1.13,0 2.03,-0.777 2.03,-1.738" /><path
             id="path484"
             style="fill:#fbfcfc;fill-opacity:1;fill-rule:nonzero;stroke:none"
             d="m 1092.17,293.25 c 0,-0.961 -0.89,-1.73 -2.03,-1.73 -1.11,0 -2.03,0.769 -2.03,1.73 0,0.961 0.92,1.738 2.03,1.738 1.14,0 2.03,-0.777 2.03,-1.738" /><path
             id="path486"
             style="fill:#fbfcfc;fill-opacity:1;fill-rule:nonzero;stroke:none"
             d="m 1098.65,293.25 c 0,-0.961 -0.94,-1.73 -2.05,-1.73 -1.11,0 -2.02,0.769 -2.02,1.73 0,0.961 0.91,1.738 2.02,1.738 1.11,0 2.05,-0.777 2.05,-1.738" /><path
             id="path488"
             style="fill:#fbfcfc;fill-opacity:1;fill-rule:nonzero;stroke:none"
             d="m 1053.42,287.949 c 0,-0.961 -0.91,-1.73 -2.03,-1.73 -1.13,0 -2.03,0.769 -2.03,1.73 0,0.942 0.9,1.731 2.03,1.731 1.12,0 2.03,-0.789 2.03,-1.731" /><path
             id="path490"
             style="fill:#fbfcfc;fill-opacity:1;fill-rule:nonzero;stroke:none"
             d="m 1059.88,287.949 c 0,-0.961 -0.91,-1.73 -2.03,-1.73 -1.12,0 -2.02,0.769 -2.02,1.73 0,0.942 0.9,1.731 2.02,1.731 1.12,0 2.03,-0.789 2.03,-1.731" /><path
             id="path492"
             style="fill:#fbfcfc;fill-opacity:1;fill-rule:nonzero;stroke:none"
             d="m 1066.34,287.949 c 0,-0.961 -0.92,-1.73 -2.03,-1.73 -1.12,0 -2.04,0.769 -2.04,1.73 0,0.942 0.92,1.731 2.04,1.731 1.11,0 2.03,-0.789 2.03,-1.731" /><path
             id="path494"
             style="fill:#fbfcfc;fill-opacity:1;fill-rule:nonzero;stroke:none"
             d="m 1072.8,287.949 c 0,-0.961 -0.91,-1.73 -2.03,-1.73 -1.12,0 -2.03,0.769 -2.03,1.73 0,0.942 0.91,1.731 2.03,1.731 1.12,0 2.03,-0.789 2.03,-1.731" /><path
             id="path496"
             style="fill:#fbfcfc;fill-opacity:1;fill-rule:nonzero;stroke:none"
             d="m 1079.25,287.949 c 0,-0.961 -0.9,-1.73 -2.01,-1.73 -1.14,0 -2.05,0.769 -2.05,1.73 0,0.942 0.91,1.731 2.05,1.731 1.11,0 2.01,-0.789 2.01,-1.731" /><path
             id="path498"
             style="fill:#fbfcfc;fill-opacity:1;fill-rule:nonzero;stroke:none"
             d="m 1085.71,287.949 c 0,-0.961 -0.9,-1.73 -2.03,-1.73 -1.12,0 -2.03,0.769 -2.03,1.73 0,0.942 0.91,1.731 2.03,1.731 1.13,0 2.03,-0.789 2.03,-1.731" /><path
             id="path500"
             style="fill:#fbfcfc;fill-opacity:1;fill-rule:nonzero;stroke:none"
             d="m 1092.17,287.949 c 0,-0.961 -0.89,-1.73 -2.03,-1.73 -1.11,0 -2.03,0.769 -2.03,1.73 0,0.942 0.92,1.731 2.03,1.731 1.14,0 2.03,-0.789 2.03,-1.731" /><path
             id="path502"
             style="fill:#fbfcfc;fill-opacity:1;fill-rule:nonzero;stroke:none"
             d="m 1098.65,287.949 c 0,-0.961 -0.94,-1.73 -2.05,-1.73 -1.11,0 -2.02,0.769 -2.02,1.73 0,0.942 0.91,1.731 2.02,1.731 1.11,0 2.05,-0.789 2.05,-1.731" /><path
             id="path504"
             style="fill:#fbfcfc;fill-opacity:1;fill-rule:nonzero;stroke:none"
             d="m 1053.42,282.629 c 0,-0.949 -0.91,-1.731 -2.03,-1.731 -1.13,0 -2.03,0.782 -2.03,1.731 0,0.953 0.9,1.742 2.03,1.742 1.12,0 2.03,-0.789 2.03,-1.742" /><path
             id="path506"
             style="fill:#fbfcfc;fill-opacity:1;fill-rule:nonzero;stroke:none"
             d="m 1059.88,282.629 c 0,-0.949 -0.91,-1.731 -2.03,-1.731 -1.12,0 -2.02,0.782 -2.02,1.731 0,0.953 0.9,1.742 2.02,1.742 1.12,0 2.03,-0.789 2.03,-1.742" /><path
             id="path508"
             style="fill:#fbfcfc;fill-opacity:1;fill-rule:nonzero;stroke:none"
             d="m 1066.34,282.629 c 0,-0.949 -0.92,-1.731 -2.03,-1.731 -1.12,0 -2.04,0.782 -2.04,1.731 0,0.953 0.92,1.742 2.04,1.742 1.11,0 2.03,-0.789 2.03,-1.742" /><path
             id="path510"
             style="fill:#fbfcfc;fill-opacity:1;fill-rule:nonzero;stroke:none"
             d="m 1072.8,282.629 c 0,-0.949 -0.91,-1.731 -2.03,-1.731 -1.12,0 -2.03,0.782 -2.03,1.731 0,0.953 0.91,1.742 2.03,1.742 1.12,0 2.03,-0.789 2.03,-1.742" /><path
             id="path512"
             style="fill:#fbfcfc;fill-opacity:1;fill-rule:nonzero;stroke:none"
             d="m 1079.25,282.629 c 0,-0.949 -0.9,-1.731 -2.01,-1.731 -1.14,0 -2.05,0.782 -2.05,1.731 0,0.953 0.91,1.742 2.05,1.742 1.11,0 2.01,-0.789 2.01,-1.742" /><path
             id="path514"
             style="fill:#fbfcfc;fill-opacity:1;fill-rule:nonzero;stroke:none"
             d="m 1085.71,282.629 c 0,-0.949 -0.9,-1.731 -2.03,-1.731 -1.12,0 -2.03,0.782 -2.03,1.731 0,0.953 0.91,1.742 2.03,1.742 1.13,0 2.03,-0.789 2.03,-1.742" /><path
             id="path516"
             style="fill:#fbfcfc;fill-opacity:1;fill-rule:nonzero;stroke:none"
             d="m 1092.17,282.629 c 0,-0.949 -0.89,-1.731 -2.03,-1.731 -1.11,0 -2.03,0.782 -2.03,1.731 0,0.953 0.92,1.742 2.03,1.742 1.14,0 2.03,-0.789 2.03,-1.742" /><path
             id="path518"
             style="fill:#fbfcfc;fill-opacity:1;fill-rule:nonzero;stroke:none"
             d="m 1098.65,282.629 c 0,-0.949 -0.94,-1.731 -2.05,-1.731 -1.11,0 -2.02,0.782 -2.02,1.731 0,0.953 0.91,1.742 2.02,1.742 1.11,0 2.05,-0.789 2.05,-1.742" /><path
             id="path520"
             style="fill:#fbfcfc;fill-opacity:1;fill-rule:nonzero;stroke:none"
             d="m 1053.42,277.32 c 0,-0.949 -0.91,-1.738 -2.03,-1.738 -1.13,0 -2.03,0.789 -2.03,1.738 0,0.95 0.9,1.731 2.03,1.731 1.12,0 2.03,-0.781 2.03,-1.731" /><path
             id="path522"
             style="fill:#fbfcfc;fill-opacity:1;fill-rule:nonzero;stroke:none"
             d="m 1059.88,277.32 c 0,-0.949 -0.91,-1.738 -2.03,-1.738 -1.12,0 -2.02,0.789 -2.02,1.738 0,0.95 0.9,1.731 2.02,1.731 1.12,0 2.03,-0.781 2.03,-1.731" /><path
             id="path524"
             style="fill:#fbfcfc;fill-opacity:1;fill-rule:nonzero;stroke:none"
             d="m 1066.34,277.32 c 0,-0.949 -0.92,-1.738 -2.03,-1.738 -1.12,0 -2.04,0.789 -2.04,1.738 0,0.95 0.92,1.731 2.04,1.731 1.11,0 2.03,-0.781 2.03,-1.731" /><path
             id="path526"
             style="fill:#fbfcfc;fill-opacity:1;fill-rule:nonzero;stroke:none"
             d="m 1072.8,277.32 c 0,-0.949 -0.91,-1.738 -2.03,-1.738 -1.12,0 -2.03,0.789 -2.03,1.738 0,0.95 0.91,1.731 2.03,1.731 1.12,0 2.03,-0.781 2.03,-1.731" /><path
             id="path528"
             style="fill:#fbfcfc;fill-opacity:1;fill-rule:nonzero;stroke:none"
             d="m 1079.25,277.32 c 0,-0.949 -0.9,-1.738 -2.01,-1.738 -1.14,0 -2.05,0.789 -2.05,1.738 0,0.95 0.91,1.731 2.05,1.731 1.11,0 2.01,-0.781 2.01,-1.731" /><path
             id="path530"
             style="fill:#fbfcfc;fill-opacity:1;fill-rule:nonzero;stroke:none"
             d="m 1085.71,277.32 c 0,-0.949 -0.9,-1.738 -2.03,-1.738 -1.12,0 -2.03,0.789 -2.03,1.738 0,0.95 0.91,1.731 2.03,1.731 1.13,0 2.03,-0.781 2.03,-1.731" /><path
             id="path532"
             style="fill:#fbfcfc;fill-opacity:1;fill-rule:nonzero;stroke:none"
             d="m 1092.17,277.32 c 0,-0.949 -0.89,-1.738 -2.03,-1.738 -1.11,0 -2.03,0.789 -2.03,1.738 0,0.95 0.92,1.731 2.03,1.731 1.14,0 2.03,-0.781 2.03,-1.731" /><path
             id="path534"
             style="fill:#fbfcfc;fill-opacity:1;fill-rule:nonzero;stroke:none"
             d="m 1098.65,277.32 c 0,-0.949 -0.94,-1.738 -2.05,-1.738 -1.11,0 -2.02,0.789 -2.02,1.738 0,0.95 0.91,1.731 2.02,1.731 1.11,0 2.05,-0.781 2.05,-1.731" /><path
             id="path536"
             style="fill:#fbfcfc;fill-opacity:1;fill-rule:nonzero;stroke:none"
             d="m 1053.42,272.012 c 0,-0.961 -0.91,-1.731 -2.03,-1.731 -1.13,0 -2.03,0.77 -2.03,1.731 0,0.949 0.9,1.718 2.03,1.718 1.12,0 2.03,-0.769 2.03,-1.718" /><path
             id="path538"
             style="fill:#fbfcfc;fill-opacity:1;fill-rule:nonzero;stroke:none"
             d="m 1059.88,272.012 c 0,-0.961 -0.91,-1.731 -2.03,-1.731 -1.12,0 -2.02,0.77 -2.02,1.731 0,0.949 0.9,1.718 2.02,1.718 1.12,0 2.03,-0.769 2.03,-1.718" /><path
             id="path540"
             style="fill:#fbfcfc;fill-opacity:1;fill-rule:nonzero;stroke:none"
             d="m 1066.34,272.012 c 0,-0.961 -0.92,-1.731 -2.03,-1.731 -1.12,0 -2.04,0.77 -2.04,1.731 0,0.949 0.92,1.718 2.04,1.718 1.11,0 2.03,-0.769 2.03,-1.718" /><path
             id="path542"
             style="fill:#fbfcfc;fill-opacity:1;fill-rule:nonzero;stroke:none"
             d="m 1072.8,272.012 c 0,-0.961 -0.91,-1.731 -2.03,-1.731 -1.12,0 -2.03,0.77 -2.03,1.731 0,0.949 0.91,1.718 2.03,1.718 1.12,0 2.03,-0.769 2.03,-1.718" /><path
             id="path544"
             style="fill:#fbfcfc;fill-opacity:1;fill-rule:nonzero;stroke:none"
             d="m 1079.25,272.012 c 0,-0.961 -0.9,-1.731 -2.01,-1.731 -1.14,0 -2.05,0.77 -2.05,1.731 0,0.949 0.91,1.718 2.05,1.718 1.11,0 2.01,-0.769 2.01,-1.718" /><path
             id="path546"
             style="fill:#fbfcfc;fill-opacity:1;fill-rule:nonzero;stroke:none"
             d="m 1085.71,272.012 c 0,-0.961 -0.9,-1.731 -2.03,-1.731 -1.12,0 -2.03,0.77 -2.03,1.731 0,0.949 0.91,1.718 2.03,1.718 1.13,0 2.03,-0.769 2.03,-1.718" /><path
             id="path548"
             style="fill:#fbfcfc;fill-opacity:1;fill-rule:nonzero;stroke:none"
             d="m 1092.17,272.012 c 0,-0.961 -0.89,-1.731 -2.03,-1.731 -1.11,0 -2.03,0.77 -2.03,1.731 0,0.949 0.92,1.718 2.03,1.718 1.14,0 2.03,-0.769 2.03,-1.718" /><path
             id="path550"
             style="fill:#fbfcfc;fill-opacity:1;fill-rule:nonzero;stroke:none"
             d="m 1098.65,272.012 c 0,-0.961 -0.94,-1.731 -2.05,-1.731 -1.11,0 -2.02,0.77 -2.02,1.731 0,0.949 0.91,1.718 2.02,1.718 1.11,0 2.05,-0.769 2.05,-1.718" /><path
             id="path552"
             style="fill:#fbfcfc;fill-opacity:1;fill-rule:nonzero;stroke:none"
             d="m 1053.42,266.691 c 0,-0.941 -0.91,-1.73 -2.03,-1.73 -1.13,0 -2.03,0.789 -2.03,1.73 0,0.95 0.9,1.731 2.03,1.731 1.12,0 2.03,-0.781 2.03,-1.731" /><path
             id="path554"
             style="fill:#fbfcfc;fill-opacity:1;fill-rule:nonzero;stroke:none"
             d="m 1059.88,266.691 c 0,-0.941 -0.91,-1.73 -2.03,-1.73 -1.12,0 -2.02,0.789 -2.02,1.73 0,0.95 0.9,1.731 2.02,1.731 1.12,0 2.03,-0.781 2.03,-1.731" /><path
             id="path556"
             style="fill:#fbfcfc;fill-opacity:1;fill-rule:nonzero;stroke:none"
             d="m 1066.34,266.691 c 0,-0.941 -0.92,-1.73 -2.03,-1.73 -1.12,0 -2.04,0.789 -2.04,1.73 0,0.95 0.92,1.731 2.04,1.731 1.11,0 2.03,-0.781 2.03,-1.731" /><path
             id="path558"
             style="fill:#fbfcfc;fill-opacity:1;fill-rule:nonzero;stroke:none"
             d="m 1072.8,266.691 c 0,-0.941 -0.91,-1.73 -2.03,-1.73 -1.12,0 -2.03,0.789 -2.03,1.73 0,0.95 0.91,1.731 2.03,1.731 1.12,0 2.03,-0.781 2.03,-1.731" /><path
             id="path560"
             style="fill:#fbfcfc;fill-opacity:1;fill-rule:nonzero;stroke:none"
             d="m 1079.25,266.691 c 0,-0.941 -0.9,-1.73 -2.01,-1.73 -1.14,0 -2.05,0.789 -2.05,1.73 0,0.95 0.91,1.731 2.05,1.731 1.11,0 2.01,-0.781 2.01,-1.731" /><path
             id="path562"
             style="fill:#fbfcfc;fill-opacity:1;fill-rule:nonzero;stroke:none"
             d="m 1085.71,266.691 c 0,-0.941 -0.9,-1.73 -2.03,-1.73 -1.12,0 -2.03,0.789 -2.03,1.73 0,0.95 0.91,1.731 2.03,1.731 1.13,0 2.03,-0.781 2.03,-1.731" /><path
             id="path564"
             style="fill:#fbfcfc;fill-opacity:1;fill-rule:nonzero;stroke:none"
             d="m 1092.17,266.691 c 0,-0.941 -0.89,-1.73 -2.03,-1.73 -1.11,0 -2.03,0.789 -2.03,1.73 0,0.95 0.92,1.731 2.03,1.731 1.14,0 2.03,-0.781 2.03,-1.731" /><path
             id="path566"
             style="fill:#fbfcfc;fill-opacity:1;fill-rule:nonzero;stroke:none"
             d="m 1098.65,266.691 c 0,-0.941 -0.94,-1.73 -2.05,-1.73 -1.11,0 -2.02,0.789 -2.02,1.73 0,0.95 0.91,1.731 2.02,1.731 1.11,0 2.05,-0.781 2.05,-1.731" /><path
             id="path568"
             style="fill:#fbfcfc;fill-opacity:1;fill-rule:nonzero;stroke:none"
             d="m 1053.42,261.391 c 0,-0.961 -0.91,-1.743 -2.03,-1.743 -1.13,0 -2.03,0.782 -2.03,1.743 0,0.941 0.9,1.73 2.03,1.73 1.12,0 2.03,-0.789 2.03,-1.73" /><path
             id="path570"
             style="fill:#fbfcfc;fill-opacity:1;fill-rule:nonzero;stroke:none"
             d="m 1059.88,261.391 c 0,-0.961 -0.91,-1.743 -2.03,-1.743 -1.12,0 -2.02,0.782 -2.02,1.743 0,0.941 0.9,1.73 2.02,1.73 1.12,0 2.03,-0.789 2.03,-1.73" /><path
             id="path572"
             style="fill:#fbfcfc;fill-opacity:1;fill-rule:nonzero;stroke:none"
             d="m 1066.34,261.391 c 0,-0.961 -0.92,-1.743 -2.03,-1.743 -1.12,0 -2.04,0.782 -2.04,1.743 0,0.941 0.92,1.73 2.04,1.73 1.11,0 2.03,-0.789 2.03,-1.73" /><path
             id="path574"
             style="fill:#fbfcfc;fill-opacity:1;fill-rule:nonzero;stroke:none"
             d="m 1072.8,261.391 c 0,-0.961 -0.91,-1.743 -2.03,-1.743 -1.12,0 -2.03,0.782 -2.03,1.743 0,0.941 0.91,1.73 2.03,1.73 1.12,0 2.03,-0.789 2.03,-1.73" /><path
             id="path576"
             style="fill:#fbfcfc;fill-opacity:1;fill-rule:nonzero;stroke:none"
             d="m 1079.25,261.391 c 0,-0.961 -0.9,-1.743 -2.01,-1.743 -1.14,0 -2.05,0.782 -2.05,1.743 0,0.941 0.91,1.73 2.05,1.73 1.11,0 2.01,-0.789 2.01,-1.73" /><path
             id="path578"
             style="fill:#fbfcfc;fill-opacity:1;fill-rule:nonzero;stroke:none"
             d="m 1085.71,261.391 c 0,-0.961 -0.9,-1.743 -2.03,-1.743 -1.12,0 -2.03,0.782 -2.03,1.743 0,0.941 0.91,1.73 2.03,1.73 1.13,0 2.03,-0.789 2.03,-1.73" /><path
             id="path580"
             style="fill:#fbfcfc;fill-opacity:1;fill-rule:nonzero;stroke:none"
             d="m 1092.17,261.391 c 0,-0.961 -0.89,-1.743 -2.03,-1.743 -1.11,0 -2.03,0.782 -2.03,1.743 0,0.941 0.92,1.73 2.03,1.73 1.14,0 2.03,-0.789 2.03,-1.73" /><path
             id="path582"
             style="fill:#fbfcfc;fill-opacity:1;fill-rule:nonzero;stroke:none"
             d="m 1098.65,261.391 c 0,-0.961 -0.94,-1.743 -2.05,-1.743 -1.11,0 -2.02,0.782 -2.02,1.743 0,0.941 0.91,1.73 2.02,1.73 1.11,0 2.05,-0.789 2.05,-1.73" /><path
             id="path584"
             style="fill:#fbfcfc;fill-opacity:1;fill-rule:nonzero;stroke:none"
             d="m 1053.42,256.07 c 0,-0.941 -0.91,-1.738 -2.03,-1.738 -1.13,0 -2.03,0.797 -2.03,1.738 0,0.95 0.9,1.731 2.03,1.731 1.12,0 2.03,-0.781 2.03,-1.731" /><path
             id="path586"
             style="fill:#fbfcfc;fill-opacity:1;fill-rule:nonzero;stroke:none"
             d="m 1059.88,256.07 c 0,-0.941 -0.91,-1.738 -2.03,-1.738 -1.12,0 -2.02,0.797 -2.02,1.738 0,0.95 0.9,1.731 2.02,1.731 1.12,0 2.03,-0.781 2.03,-1.731" /><path
             id="path588"
             style="fill:#fbfcfc;fill-opacity:1;fill-rule:nonzero;stroke:none"
             d="m 1066.34,256.07 c 0,-0.941 -0.92,-1.738 -2.03,-1.738 -1.12,0 -2.04,0.797 -2.04,1.738 0,0.95 0.92,1.731 2.04,1.731 1.11,0 2.03,-0.781 2.03,-1.731" /><path
             id="path590"
             style="fill:#fbfcfc;fill-opacity:1;fill-rule:nonzero;stroke:none"
             d="m 1072.8,256.07 c 0,-0.941 -0.91,-1.738 -2.03,-1.738 -1.12,0 -2.03,0.797 -2.03,1.738 0,0.95 0.91,1.731 2.03,1.731 1.12,0 2.03,-0.781 2.03,-1.731" /><path
             id="path592"
             style="fill:#fbfcfc;fill-opacity:1;fill-rule:nonzero;stroke:none"
             d="m 1079.25,256.07 c 0,-0.941 -0.9,-1.738 -2.01,-1.738 -1.14,0 -2.05,0.797 -2.05,1.738 0,0.95 0.91,1.731 2.05,1.731 1.11,0 2.01,-0.781 2.01,-1.731" /><path
             id="path594"
             style="fill:#fbfcfc;fill-opacity:1;fill-rule:nonzero;stroke:none"
             d="m 1085.71,256.07 c 0,-0.941 -0.9,-1.738 -2.03,-1.738 -1.12,0 -2.03,0.797 -2.03,1.738 0,0.95 0.91,1.731 2.03,1.731 1.13,0 2.03,-0.781 2.03,-1.731" /><path
             id="path596"
             style="fill:#fbfcfc;fill-opacity:1;fill-rule:nonzero;stroke:none"
             d="m 1092.17,256.07 c 0,-0.941 -0.89,-1.738 -2.03,-1.738 -1.11,0 -2.03,0.797 -2.03,1.738 0,0.95 0.92,1.731 2.03,1.731 1.14,0 2.03,-0.781 2.03,-1.731" /><path
             id="path598"
             style="fill:#fbfcfc;fill-opacity:1;fill-rule:nonzero;stroke:none"
             d="m 1098.65,256.07 c 0,-0.941 -0.94,-1.738 -2.05,-1.738 -1.11,0 -2.02,0.797 -2.02,1.738 0,0.95 0.91,1.731 2.02,1.731 1.11,0 2.05,-0.781 2.05,-1.731" /><path
             id="path600"
             style="fill:#284456;fill-opacity:1;fill-rule:nonzero;stroke:none"
             d="m 1001.5,384.051 -1.629,0.398 1.319,5.262 1.64,-0.402 -1.33,-5.258" /><path
             id="path602"
             style="fill:#3f94a8;fill-opacity:1;fill-rule:nonzero;stroke:none"
             d="m 2028.07,815.668 c 22.28,0 40.33,-11.875 40.33,-26.523 0,-6.215 -3.27,-11.911 -8.7,-16.438 0,0 0.77,-10.352 13.18,-15.297 -17.47,0 -26.45,8.137 -26.45,8.137 -5.51,-1.856 -11.73,-2.93 -18.36,-2.93 -22.26,0 -40.32,11.875 -40.32,26.528 19.12,-5.512 44.69,-5.329 40.32,26.523" /><path
             id="path604"
             style="fill:#3f94a8;fill-opacity:1;fill-rule:nonzero;stroke:none"
             d="m 2016.01,798.406 c -3.32,0 -6.01,2.676 -6.01,5.981 0,3.297 2.69,5.972 6.01,5.972 3.31,0 6.01,-2.675 6.01,-5.972 0,-3.305 -2.7,-5.981 -6.01,-5.981 z m -21.09,0 c -3.32,0 -6.02,2.676 -6.02,5.981 0,3.297 2.7,5.972 6.02,5.972 3.31,0 6,-2.675 6,-5.972 0,-3.305 -2.69,-5.981 -6,-5.981 z m -21.12,0 c -3.31,0 -5.99,2.676 -5.99,5.981 0,3.297 2.68,5.972 5.99,5.972 3.32,0 6.02,-2.675 6.02,-5.972 0,-3.305 -2.7,-5.981 -6.02,-5.981 z m 20.74,38.532 c -27.32,0 -49.46,-14.567 -49.46,-32.528 0,-7.625 4.02,-14.613 10.68,-20.152 0,0 0.72,-13.274 -10.14,-21.903 14.99,2.899 26.4,13.114 26.4,13.114 6.75,-2.281 14.4,-3.594 22.52,-3.594 27.31,0 49.45,14.563 49.45,32.535 0,17.961 -22.14,32.528 -49.45,32.528" /><path
             id="path606"
             style="fill:#ecb50e;fill-opacity:1;fill-rule:nonzero;stroke:none"
             d="m 2355.5,573.504 c 3.02,-0.516 20.85,-0.926 22.3,-1.102 2.7,-0.332 5.16,-1.574 6.22,-2.05 2.09,-0.942 4.71,-1.34 13.91,-1.27 24.53,0.184 44.42,-0.02 49.57,-0.02 3.81,0 63.09,24.188 64.75,26.836 0.88,0.899 4.8,12.325 6.03,12.325 23.72,0.339 53.1,0.429 77.91,0.683 0,52.539 -1.19,124.219 -1.19,124.219 l -74.2,-0.02 c 0,0 -24.94,16.172 -32.26,16.172 -13.31,0.02 -30.12,0.321 -82.59,-0.089 l 2.52,-20.731 V 608.242 h 14.47 l -0.16,-1.543 c 0,0 -15.34,-7.969 -18.85,-9.472 -1.59,-0.704 -28.13,-2.122 -32.99,-3.665 -15.29,-4.843 -20.24,-19.218 -15.44,-20.058" /><path
             id="path608"
             style="fill:#ecb50e;fill-opacity:1;fill-rule:nonzero;stroke:none"
             d="m 2352.5,711.766 c 1.61,1.261 2.36,5.957 1.78,6.886 l 100.12,12.567 -6.07,-29.227 -95.83,9.774" /><path
             id="path610"
             style="fill:#ecb50e;fill-opacity:1;fill-rule:nonzero;stroke:none"
             d="m 2333.51,675.633 c 1.05,1.34 1.44,6.035 0.86,6.972 l 100.55,12.512 -6.08,-29.238 -95.33,9.754" /><path
             id="path612"
             style="fill:#ecb50e;fill-opacity:1;fill-rule:nonzero;stroke:none"
             d="m 2342.46,639.129 c 0.8,1.867 -1.51,5.723 -2.07,6.672 l 102.6,12.664 -6.07,-29.246 -94.46,9.91" /><path
             id="path614"
             style="fill:#ecb50e;fill-opacity:1;fill-rule:nonzero;stroke:none"
             d="m 2249.73,625.125 c 0,8.605 4.17,14.367 15.6,14.367 h 144.93 c 11.42,0 20.78,-7.023 20.78,-15.625 0,-8.594 -9.36,-15.625 -20.78,-15.625 h -144.93 c -11.43,0 -15.6,8.309 -15.6,16.883" /><path
             id="path616"
             style="fill:#ecb50e;fill-opacity:1;fill-rule:nonzero;stroke:none"
             d="m 2295.17,660.418 c 0,8.605 4.49,15.637 15.93,15.637 h 102.34 c 11.43,0.007 20.78,-7.032 20.78,-15.637 0,-8.594 -9.35,-15.613 -20.78,-15.613 H 2311.1 c -11.44,0 -15.93,7.019 -15.93,15.613" /><path
             id="path618"
             style="fill:#ecb50e;fill-opacity:1;fill-rule:nonzero;stroke:none"
             d="m 2310.33,695.117 c 0,8.602 5.1,17.461 16.52,17.461 h 98.99 c 11.42,0 20.78,-7.004 20.78,-15.605 0,-8.606 -9.36,-15.625 -20.79,-15.625 h -98.98 c -11.42,0 -16.52,5.156 -16.52,13.769" /><path
             id="path620"
             style="fill:#ecb50e;fill-opacity:1;fill-rule:nonzero;stroke:none"
             d="m 2330.62,732.441 c 0,8.594 6.42,16.747 17.84,16.747 h 96.26 c 11.44,0 20.78,-7.032 20.78,-15.626 0,-8.601 -9.34,-15.613 -20.78,-15.613 h -98.63 c -11.42,0 -15.47,5.879 -15.47,14.492" /><path
             id="path622"
             style="fill:#fdfefe;fill-opacity:1;fill-rule:nonzero;stroke:none"
             d="m 2268.63,615.008 c -1.18,-0.613 -5.19,-0.633 -7.26,-0.223 -5,0.996 -6.13,3.692 -6.13,9.102 0.01,7.715 1.28,8.281 4.52,9.851 2.02,0.957 8.26,0.754 9,0.168 0.69,-0.539 1.97,-1.437 1.97,-9.218 0,-8.633 -1.15,-9.211 -2.1,-9.68" /><path
             id="path624"
             style="fill:#fdfefe;fill-opacity:1;fill-rule:nonzero;stroke:none"
             d="m 2355.28,573.309 c 5.71,-0.985 19.9,-0.985 19.9,-0.985 0,0 -0.18,1.074 0,2.274 0,0 -10.9,0.437 -18.14,0 -0.94,-0.067 -2.3,-1.2 -1.76,-1.289" /><path
             id="path626"
             style="fill:#d5e8f0;fill-opacity:1;fill-rule:nonzero;stroke:none"
             d="m 2542.03,588.066 496.09,0.008 v 172.949 l -496.09,-0.007 v -172.95" /><path
             id="path628"
             style="fill:#fdfefe;fill-opacity:1;fill-rule:nonzero;stroke:none"
             d="m 2542.03,673.887 496.09,0.019 v 87.117 l -496.09,-0.007 v -87.129" /><path
             id="path630"
             style="fill:#19222b;fill-opacity:1;fill-rule:nonzero;stroke:none"
             d="m 2552.15,582.949 h 493.543 V 766.398 H 2552.15 Z" /><path
             id="path632"
             style="fill:#264051;fill-opacity:1;fill-rule:nonzero;stroke:none"
             d="m 2552.15,674.902 h 493.543 v 91.4961 H 2552.15 Z" /><path
             id="path634"
             style="fill:#15171a;fill-opacity:1;fill-rule:nonzero;stroke:none"
             d="m 2621.11,582.949 -0.01,183.465 h -4.33 l 0.01,-183.465 h 4.33" /><path
             id="path636"
             style="fill:#19222b;fill-opacity:1;fill-rule:nonzero;stroke:none"
             d="m 2616.77,674.734 h 4.332 v 91.6797 h -4.332 z" /><path
             id="path638"
             style="fill:#fdfefe;fill-opacity:1;fill-rule:nonzero;stroke:none"
             d="m 2573.43,739.258 c 0,3.379 2.78,6.113 6.19,6.113 3.42,0 6.2,-2.734 6.2,-6.113 0,-3.418 -2.78,-6.153 -6.2,-6.153 -3.4,0 -6.19,2.735 -6.19,6.153" /><path
             id="path640"
             style="fill:#3f94a8;fill-opacity:1;fill-rule:nonzero;stroke:none"
             d="m 972.309,898.711 v 19.797 l 21.105,-9.903 z m 27.332,29.051 h -39.332 c -3.313,0 -6.024,-2.684 -6.024,-5.977 v -26.351 c 0,-3.286 2.711,-5.981 6.024,-5.981 h 39.332 c 3.299,0 6.009,2.695 6.009,5.981 v 26.351 c 0,3.293 -2.71,5.977 -6.009,5.977" /><path
             id="path642"
             style="fill:#182c3a;fill-opacity:1;fill-rule:nonzero;stroke:none"
             d="m 1913.75,460.98 c -84.18,0 -266.45,0.071 -445,0.149 -178.54,-0.078 -360.82,-0.149 -445,-0.149 -6.69,0 -26.641,-5.66 -15.43,-21.949 8.03,-11.672 15.45,-19.312 33.87,-19.312 h 853.12 c 18.42,0 25.84,7.64 33.86,19.312 11.22,16.289 -8.73,21.949 -15.42,21.949" /><path
             id="path644"
             style="fill:#50c5cf;fill-opacity:1;fill-rule:nonzero;stroke:none"
             d="m 1086.14,549.227 h 779.77 v 435.004 h -779.77 z" /><path
             id="path646"
             style="fill:#44b1c0;fill-opacity:1;fill-rule:nonzero;stroke:none"
             d="m 1865.91,549.227 -766.35,16.457 766.35,418.546 V 549.227" /><path
             id="path648"
             style="fill:#182c3a;fill-opacity:1;fill-rule:nonzero;stroke:none"
             d="m 1099.56,565.684 -1.12,412.293 748.31,1.078 0.59,-412.297 z m 794.13,417.148 c 0.27,22.208 -21.28,40.458 -47.63,40.188 l -745.56,-0.79 c -25.8,0 -47.88,-18.25 -47.61,-40.195 l 0.51,-461.914 h 841.07 l -0.78,462.711" /><path
             id="path650"
             style="fill:#182c3a;fill-opacity:1;fill-rule:nonzero;stroke:none"
             d="m 1053.4,520.121 0.02,-10.68 c 0,-22.222 21.8,-39.921 47.87,-39.921 l 745.35,0.789 c 26.3,0 47.85,18 47.85,40.211 l -0.02,9.601 H 1053.4" /><path
             id="path652"
             style="fill:#ffffff;fill-opacity:1;fill-rule:nonzero;stroke:none"
             d="m 1098.46,566.758 h 748.879 V 978.164 H 1098.46 Z" /><path
             id="path654"
             style="fill:#addbdb;fill-opacity:1;fill-rule:nonzero;stroke:none"
             d="m 1098.39,934.5 h 748.988 v 43.6641 H 1098.39 Z" /><path
             id="path656"
             style="fill:#addbdb;fill-opacity:1;fill-rule:nonzero;stroke:none"
             d="m 1339.08,809.668 -0.75,-0.883 h -207.16 l -0.82,0.883 v 90.059 l 0.82,0.828 h 207.16 l 0.75,-0.828 v -90.059" /><path
             id="path658"
             style="fill:#addbdb;fill-opacity:1;fill-rule:nonzero;stroke:none"
             d="m 1421.6,596.934 -1.02,-0.649 h -289.1 l -1.13,0.649 v 63.242 l 1.13,0.605 h 289.1 l 1.02,-0.605 v -63.242" /><path
             id="path660"
             style="fill:#addbdb;fill-opacity:1;fill-rule:nonzero;stroke:none"
             d="m 1783.11,596.934 -1.08,-0.649 h -314.28 l -1.28,0.649 v 63.242 l 1.28,0.605 h 314.28 l 1.08,-0.605 v -63.242" /><path
             id="path662"
             style="fill:#addbdb;fill-opacity:1;fill-rule:nonzero;stroke:none"
             d="m 1630.44,782.543 c 0,-0.098 -0.89,-0.129 -1.82,-0.129 h -496.33 c -1.07,0 -1.94,0.031 -1.94,0.129 v 12.145 c 0,0.058 0.87,0.097 1.94,0.097 h 496.33 c 0.93,0 1.82,-0.039 1.82,-0.097 v -12.145" /><path
             id="path664"
             style="fill:#addbdb;fill-opacity:1;fill-rule:nonzero;stroke:none"
             d="m 1622.27,758.348 -1.76,-0.114 h -488.25 c -1.08,0 -1.91,0.075 -1.91,0.114 v 12.172 c 0,0.027 0.83,0.085 1.91,0.085 h 488.25 l 1.76,-0.085 v -12.172" /><path
             id="path666"
             style="fill:#addbdb;fill-opacity:1;fill-rule:nonzero;stroke:none"
             d="m 1630.44,734.199 c 0,-0.078 -0.89,-0.148 -1.82,-0.148 h -496.33 c -1.07,0 -1.94,0.07 -1.94,0.148 v 12.117 c 0,0.059 0.87,0.129 1.94,0.129 h 496.33 c 0.93,0 1.82,-0.07 1.82,-0.129 v -12.117" /><path
             id="path668"
             style="fill:#addbdb;fill-opacity:1;fill-rule:nonzero;stroke:none"
             d="m 1405.98,709.98 -0.97,-0.097 h -273.58 l -1.08,0.097 v 12.149 l 1.08,0.098 h 273.58 l 0.97,-0.098 V 709.98" /><path
             id="path670"
             style="fill:#addbdb;fill-opacity:1;fill-rule:nonzero;stroke:none"
             d="m 1643.14,887.883 -1,-0.121 h -271.68 l -1.09,0.121 v 12.156 l 1.09,0.109 h 271.68 l 1,-0.109 v -12.156" /><path
             id="path672"
             style="fill:#addbdb;fill-opacity:1;fill-rule:nonzero;stroke:none"
             d="m 1630.44,861.582 -0.92,-0.133 h -259.18 l -0.97,0.133 v 12.117 l 0.97,0.113 h 259.18 l 0.92,-0.113 v -12.117" /><path
             id="path674"
             style="fill:#addbdb;fill-opacity:1;fill-rule:nonzero;stroke:none"
             d="m 1637.4,835.242 -0.94,-0.133 h -266.04 l -1.05,0.133 v 12.11 l 1.05,0.113 h 266.04 l 0.94,-0.113 v -12.11" /><path
             id="path676"
             style="fill:#addbdb;fill-opacity:1;fill-rule:nonzero;stroke:none"
             d="m 1635.19,808.93 -0.94,-0.145 h -263.83 l -1.05,0.145 v 12.125 l 1.05,0.117 h 263.83 l 0.94,-0.117 V 808.93" /><path
             id="path678"
             style="fill:#56c3d0;fill-opacity:1;fill-rule:nonzero;stroke:none"
             d="m 1820.37,772.051 -0.56,-1.281 h -135.18 l -0.59,1.281 v 126.906 l 0.59,1.191 h 135.18 l 0.56,-1.191 V 772.051" /><path
             id="path680"
             style="fill:#addbdb;fill-opacity:1;fill-rule:nonzero;stroke:none"
             d="m 1820.37,745.242 -0.53,-0.125 h -135.21 l -0.59,0.125 v 12.18 l 0.59,0.105 h 135.21 l 0.53,-0.105 v -12.18" /><path
             id="path682"
             style="fill:#addbdb;fill-opacity:1;fill-rule:nonzero;stroke:none"
             d="m 1820.37,721.59 -0.53,-0.078 h -135.21 l -0.59,0.078 v 12.18 l 0.59,0.105 h 135.21 l 0.53,-0.105 v -12.18" /><path
             id="path684"
             style="fill:#addbdb;fill-opacity:1;fill-rule:nonzero;stroke:none"
             d="m 1820.37,697.969 -0.53,-0.11 h -135.21 l -0.59,0.11 v 12.136 l 0.59,0.137 h 135.21 l 0.53,-0.137 v -12.136" /><path
             id="path686"
             style="fill:#addbdb;fill-opacity:1;fill-rule:nonzero;stroke:none"
             d="m 1820.37,674.324 -0.53,-0.097 h -135.21 l -0.59,0.097 v 12.16 l 0.59,0.137 h 135.21 l 0.53,-0.137 v -12.16" /><path
             id="path688"
             style="fill:#addbdb;fill-opacity:1;fill-rule:nonzero;stroke:none"
             d="m 1421.6,574.336 -1.18,-0.078 H 1131.6 l -1.25,0.078 v 8.562 l 1.25,0.09 h 288.82 l 1.18,-0.09 v -8.562" /><path
             id="path690"
             style="fill:#addbdb;fill-opacity:1;fill-rule:nonzero;stroke:none"
             d="m 1784.21,574.336 -1.23,-0.078 H 1471.2 l -1.43,0.078 v 8.562 l 1.43,0.09 h 311.78 l 1.23,-0.09 v -8.562" /><path
             id="path692"
             style="fill:#ffffff;fill-opacity:1;fill-rule:nonzero;stroke:none"
             d="m 1130.35,941.938 h 645.457 v 28.2266 H 1130.35 Z" /><path
             id="path694"
             style="fill:#ffffff;fill-opacity:1;fill-rule:nonzero;stroke:none"
             d="m 1161.87,469.52 h 111.039 v 6.05078 H 1161.87 Z" /><path
             id="path696"
             style="fill:#ffffff;fill-opacity:1;fill-rule:nonzero;stroke:none"
             d="m 1673.2,470.031 h 100.07 v 6.05078 H 1673.2 Z" /></g></g></g></g></svg>